<?xml version="1.0" standalone="no"?>
<!DOCTYPE svg PUBLIC "-//W3C//DTD SVG 1.1//EN" "http://www.w3.org/Graphics/SVG/1.1/DTD/svg11.dtd" >
<svg xmlns="http://www.w3.org/2000/svg">
<metadata></metadata>
<defs>
<font id="generika_mono_lightregular" horiz-adv-x="989" >
<font-face units-per-em="2048" ascent="1638" descent="-410" />
<missing-glyph horiz-adv-x="485" />
<glyph horiz-adv-x="2048" />
<glyph horiz-adv-x="2048" />
<glyph unicode="&#xd;" horiz-adv-x="2048" />
<glyph unicode=" "  horiz-adv-x="485" />
<glyph unicode="&#x09;" horiz-adv-x="485" />
<glyph unicode="&#xa0;" horiz-adv-x="485" />
<glyph unicode="!" horiz-adv-x="757" d="M375 135q0 57 39.5 96t95.5 39q59 0 99 -39t40 -96q0 -56 -40.5 -95.5t-98.5 -39.5q-56 0 -95.5 40t-39.5 95zM418 1432q0 14 14 14h154q14 0 14 -14l-27 -990q0 -14 -14 -14h-102q-5 0 -9 4t-4 10z" />
<glyph unicode="&#x22;" horiz-adv-x="815" d="M326 1452q0 14 14 14h84q14 0 14 -14l-20 -537q0 -14 -15 -14h-45q-12 0 -12 14zM586 1452q0 14 14 14h84q14 0 14 -14l-20 -537q0 -14 -14 -14h-46q-12 0 -12 14z" />
<glyph unicode="#" horiz-adv-x="1173" d="M-61 451v69q0 15 14 15h315l60 311h-303q-15 0 -15 14v70q0 14 15 14h317l66 361q5 18 20 18h68q18 0 12 -18l-227 -1287q-5 -18 -21 -18h-67q-19 0 -13 18l72 418h-299q-14 0 -14 15zM506 18l227 1287q5 18 21 18h67q19 0 13 -18l-66 -361h303q14 0 14 -14v-70 q0 -14 -14 -14h-317l-60 -311h305q6 0 10.5 -4.5t4.5 -10.5v-69q0 -6 -4.5 -10.5t-10.5 -4.5h-321l-72 -418q-5 -18 -20 -18h-68q-18 0 -12 18z" />
<glyph unicode="$" d="M164 408v18q0 14 14 14h70q14 0 14 -14v-20q0 -328 248 -328q49 0 91.5 15.5t79 49t58 93.5t21.5 141q0 58 -14.5 103t-50.5 87t-78 76.5t-115 85.5q-130 89 -179 136q-135 126 -135 284q0 131 68.5 214.5t198.5 98.5v166q0 14 14 14h70q14 0 14 -14v-164 q128 -14 199 -102t71 -203v-14q0 -12 -14 -12h-72q-14 0 -14 14q0 99 -58.5 160t-156.5 61q-221 0 -221 -219q0 -56 20 -103.5t65.5 -93t92 -80.5t127.5 -88q153 -101 209.5 -198t56.5 -209q0 -182 -82 -281.5t-223 -113.5v-134q0 -14 -14 -14h-70q-14 0 -14 14v136 q-291 32 -291 424z" />
<glyph unicode="%" horiz-adv-x="1140" d="M-4 1171q0 153 43.5 224t163.5 71q61 0 102.5 -23.5t61.5 -67.5t28 -92t8 -112q0 -59 -4.5 -103t-17 -86t-34.5 -68t-58 -42t-86 -16q-52 0 -89.5 16t-60 42t-35.5 68t-17.5 85.5t-4.5 103.5zM74 18l714 1414q7 14 19 14h72q17 0 8 -19l-713 -1409q-9 -18 -22 -18h-70 q-17 0 -8 18zM86 1169q0 -55 4.5 -92t16.5 -69.5t36 -48t60 -15.5q63 0 87.5 58t24.5 169q0 112 -24 157.5t-88 45.5q-68 0 -92.5 -45t-24.5 -160zM621 313q0 153 44 224t164 71q49 0 85.5 -16.5t58 -42.5t34.5 -66t17 -79.5t4 -90.5q0 -74 -7.5 -126t-28 -97.5t-61 -68.5 t-102.5 -23q-52 0 -90 16t-60.5 42.5t-35.5 68.5t-17.5 85.5t-4.5 102.5zM711 311q0 -43 2.5 -74.5t10 -61.5t20 -49t34 -30.5t51.5 -11.5q62 0 86.5 59.5t24.5 169.5q0 112 -24.5 157.5t-86.5 45.5q-69 0 -93.5 -45t-24.5 -160z" />
<glyph unicode="&#x26;" horiz-adv-x="1003" d="M106 328q0 143 60.5 260t179.5 254l-37 78q-2 4 -13.5 28.5t-14.5 31t-14 29.5t-14.5 32t-12 30t-12 32.5t-9.5 30.5t-8 32t-4 29t-2 30q0 100 58.5 170.5t172.5 70.5q111 0 165 -65.5t54 -175.5q0 -31 -3.5 -57t-19 -80t-59 -122.5t-110.5 -142.5l260 -534 q59 160 59 319q0 6 4.5 10.5t10.5 4.5h69q6 0 10.5 -4.5t4.5 -10.5q0 -129 -32.5 -246.5t-76.5 -187.5q4 -6 10 -18t8.5 -15.5t7 -11.5t7 -10.5t6.5 -7t7 -5.5t7.5 -3.5t9.5 -3t11 -1t14 -0.5h41q14 0 14 -14v-70q0 -14 -16 -14h-51q-50 0 -81 21t-62 75 q-111 -116 -289 -116q-128 0 -219 96t-91 252zM205 328q0 -110 63 -180t150 -70q77 0 133.5 26t110.5 91l-271 548q-100 -122 -143 -212t-43 -203zM303 1225q0 -16 2.5 -33t10.5 -40.5t13 -38.5t19.5 -46.5t20.5 -44t25 -52t24 -50.5q72 94 97 142q42 82 42 163 q0 73 -27.5 108t-93.5 35q-39 0 -67 -14t-41.5 -37.5t-19 -45.5t-5.5 -46z" />
<glyph unicode="'" horiz-adv-x="694" d="M444 1452q0 14 15 14h104q15 0 15 -14l-21 -537q0 -14 -14 -14h-66q-12 0 -12 14z" />
<glyph unicode="(" horiz-adv-x="720" d="M307 676q0 230 83.5 456t240.5 406q6 8 16.5 11t22.5 -5l39 -33q14 -12 -13 -47q-5 -7 -16 -21q-28 -36 -44.5 -58.5t-48.5 -72t-52.5 -91t-46.5 -106t-41 -127t-26 -144.5t-11 -168q0 -119 20.5 -229.5t47.5 -186t69 -152t69 -115t64 -86.5q11 -14 16 -20q27 -35 13 -47 l-39 -33q-12 -7 -22.5 -4t-16.5 11q-157 180 -240.5 406t-83.5 456z" />
<glyph unicode=")" horiz-adv-x="847" d="M313 -160q-14 12 13 47q83 110 114 160q172 278 172 629q0 100 -12.5 191.5t-38 167.5t-49 134t-61 116.5t-57 86.5t-52.5 71q-11 14 -16 21q-27 35 -13 47l39 33q12 8 22.5 5t16.5 -11q157 -180 240.5 -406t83.5 -456t-83.5 -456t-240.5 -406q-6 -8 -16.5 -11t-22.5 4z " />
<glyph unicode="*" horiz-adv-x="1046" d="M88 1028v74q0 16 18 16l324 -6l-168 279q-9 9 4 22l68 39q13 4 22 -8l156 -285l156 285q11 15 22 8l68 -39q13 -13 4 -27l-168 -274l324 6q18 0 18 -16v-74q0 -8 -5 -13t-13 -5l-324 8l168 -279q9 -11 -4 -24l-68 -37q-10 -6 -22 6l-158 285l-154 -285q-14 -14 -22 -6 l-68 37q-12 12 -4 26l168 277l-324 -8q-8 0 -13 5t-5 13z" />
<glyph unicode="+" horiz-adv-x="1058" d="M43 430v78q0 14 14 14h400v400q0 14 14 14h78q14 0 14 -14v-400h402q14 0 14 -14v-78q0 -14 -14 -14h-402v-402q0 -14 -14 -14h-78q-14 0 -14 14v402h-400q-14 0 -14 14z" />
<glyph unicode="," horiz-adv-x="772" d="M377 137q6 61 44.5 97.5t92.5 33.5q61 -4 98 -45t37 -102q0 -52 -3.5 -87.5t-16 -89t-44 -103t-81.5 -95.5q-20 -17 -36 -16t-28 14q-11 10 -7 31t22 39q52 56 74 96.5t28 91.5q-24 -4 -53 -4q-56 0 -94.5 42t-32.5 97z" />
<glyph unicode="-" horiz-adv-x="1007" d="M166 424v90q0 14 14 14h662q14 0 14 -14v-90q0 -14 -14 -14h-662q-14 0 -14 14z" />
<glyph unicode="." horiz-adv-x="776" d="M375 135q0 57 39.5 96t95.5 39q59 0 99 -39t40 -96q0 -56 -40.5 -95.5t-98.5 -39.5q-56 0 -95.5 40t-39.5 95z" />
<glyph unicode="/" horiz-adv-x="829" d="M262 18l400 1409q5 19 20 19h68q18 0 12 -19l-400 -1409q-5 -18 -20 -18h-68q-18 0 -12 18z" />
<glyph unicode="0" d="M156 328q-21 375 0 796q2 31 5.5 57t13.5 62.5t24.5 65.5t40.5 59.5t59.5 51t83.5 33.5t111 13q320 0 337 -342q24 -421 0 -796q-2 -40 -8 -78t-27.5 -89.5t-56 -89t-98 -64.5t-147.5 -27t-147.5 27t-97.5 64t-56 89.5t-28.5 89.5t-8.5 78zM250 414q4 -86 10 -127 l434 987q-52 94 -200 94q-135 0 -185.5 -69.5t-58.5 -239.5q-9 -308 0 -645zM305 160q56 -82 189 -82q59 0 102.5 17t69 44.5t41.5 72.5t22 91.5t8 110.5q0 11 3 82.5t3 87.5t2 77.5t2 85v75t-1 83t-3.5 74t-5.5 80.5l-6 76z" />
<glyph unicode="1" d="M193 1192l251 242l3.5 3.5l3 3t3 2t4.5 2t5.5 1t7.5 0.5h115q12 0 12 -12v-1336h188q15 0 15 -14v-70q0 -14 -15 -14h-487q-14 0 -14 14v70q0 14 14 14h201v1252l-234 -224q-10 -10 -20 0l-51 45q-13 10 -2 21z" />
<glyph unicode="2" d="M154 1108v37q0 146 88 233.5t256 87.5q153 0 235 -94.5t82 -241.5q0 -98 -74 -225.5t-219 -261.5q-54 -51 -94 -96t-80.5 -103t-62 -122.5t-21.5 -131.5v-92h557q15 0 15 -14v-70q0 -14 -15 -14h-651q-14 0 -14 14v160q0 257 280 522q281 271 281 434q0 104 -53.5 173 t-165.5 69t-178 -64.5t-66 -179.5v-20q0 -14 -14 -14h-72q-14 0 -14 14z" />
<glyph unicode="3" d="M154 311v17q0 14 14 14h70q14 0 14 -14v-17q0 -37 11.5 -75t36.5 -75t72 -60t109 -23q133 0 194.5 74t61.5 256q0 55 -2 94q-1 26 -8 52.5t-25.5 59t-46.5 57t-75.5 41.5t-108.5 17h-12q-15 0 -15 14v68q0 14 15 14h26q29 0 54.5 3.5t62 19.5t62 43.5t44.5 81.5t19 127 q0 53 -11.5 98.5t-36.5 85t-71.5 62t-109.5 22.5q-242 0 -242 -211v-2q0 -14 -14 -14h-70q-14 0 -14 14v12q0 133 87 216t253 83q67 0 122.5 -20.5t93 -55t63 -81.5t37 -99.5t11.5 -109.5q0 -110 -40 -201t-126 -121q78 -36 121.5 -97.5t53.5 -178.5q2 -37 2 -94 q0 -78 -10 -140t-35 -117t-64.5 -92t-101.5 -58t-144 -21q-142 0 -234.5 94t-92.5 237z" />
<glyph unicode="4" d="M104 272v82q0 23 9 41l399 1039q5 12 14 12h86q6 0 9 -4t0 -8l-412 -1074h387v330q0 12 14 12h72q12 0 12 -12v-330h174q15 0 15 -14v-76q0 -5 -4.5 -8.5t-10.5 -3.5h-174v-244q0 -14 -14 -14h-70q-14 0 -14 14v244h-477q-15 0 -15 14z" />
<glyph unicode="5" d="M154 315v29q0 14 12 14h76q12 0 12 -14v-29q0 -95 57.5 -166t173.5 -71q252 0 252 311v242q0 129 -49.5 196.5t-175.5 67.5q-83 0 -159.5 -54t-90.5 -147l-4 -26q-3 -15 -16 -15h-76q-13 0 -10 15l82 764q3 14 14 14h508q4 0 8 -4t4 -8v-72q0 -14 -12 -14h-434l-47 -445 q59 56 119 73t130 17q141 0 224.5 -90t83.5 -260v-272q0 -173 -89 -282t-262 -109q-141 0 -236 93t-95 242z" />
<glyph unicode="6" d="M160 385v682q0 399 329 399q140 0 222 -64.5t82 -205.5q0 -14 -15 -14h-69q-15 0 -15 14q0 99 -52 135.5t-153 36.5q-120 0 -175.5 -69t-55.5 -234v-195q22 34 56 58t70.5 34.5t64.5 14.5t55 4q323 0 323 -350v-258q0 -177 -82.5 -285t-248.5 -108q-177 0 -256.5 104.5 t-79.5 300.5zM258 369q0 -74 13.5 -128t35 -84.5t54 -49t63.5 -24t72 -5.5q233 0 233 291v256q0 130 -49 194t-176 64q-65 0 -114.5 -24.5t-77 -63.5t-41 -81t-13.5 -85v-260z" />
<glyph unicode="7" d="M168 1362v70q0 14 14 14h623q14 0 14 -14v-99q0 -47 -11.5 -97t-31.5 -96.5t-36.5 -79.5t-38.5 -70.5t-25 -43.5q-13 -26 -37.5 -77t-33.5 -70t-27 -61t-24 -64.5t-18 -66t-15.5 -80t-10.5 -91t-8.5 -115t-3.5 -137t-2 -170.5q0 -14 -15 -14h-69q-15 0 -15 14 q0 215 5.5 336t28 235t58 199t103.5 213q5 9 21.5 40t21 39.5t18.5 34.5t18 35.5t14 32t13 34t9 31.5t8 34.5t4 33t2 36.5h-539q-14 0 -14 14z" />
<glyph unicode="8" d="M147 410q0 146 55.5 245.5t129.5 128.5q-158 81 -158 332q0 47 9.5 93t33 93.5t58.5 83t91.5 58t127.5 22.5t127.5 -22.5t91.5 -58t58.5 -83t32.5 -93.5t9 -93q0 -251 -158 -332q74 -29 129.5 -128.5t55.5 -245.5q0 -199 -88 -314.5t-258 -115.5t-258.5 115.5 t-88.5 314.5zM246 410q0 -41 3.5 -76.5t18 -85.5t39 -84.5t73 -60t114.5 -25.5q247 0 247 332q0 142 -66.5 234.5t-180.5 92.5t-181 -92.5t-67 -234.5zM272 1108q0 -137 61.5 -204.5t160.5 -67.5t160 67t61 205q0 119 -54.5 189.5t-166.5 70.5t-167 -70.5t-55 -189.5z" />
<glyph unicode="9" d="M160 877v196q0 177 84 285t250 108q177 0 256 -104.5t79 -300.5v-682q0 -188 -85 -293.5t-257 -105.5q-67 0 -124.5 19.5t-102 57.5t-70.5 101t-26 143q0 14 14 14h70q14 0 14 -14q0 -112 63.5 -167.5t161.5 -55.5q122 0 183 70t61 233v260q-42 -65 -107.5 -90 t-125.5 -25q-154 0 -246 87t-92 264zM258 879q0 -128 57 -191t183 -63q52 0 94 18t67 45.5t42 63.5t23.5 69.5t6.5 65.5v190q0 74 -13.5 128t-34.5 84.5t-53.5 49t-64 24t-71.5 5.5q-236 0 -236 -291v-198z" />
<glyph unicode=":" horiz-adv-x="768" d="M375 135q0 57 39.5 96t95.5 39q59 0 99 -39t40 -96q0 -56 -40.5 -95.5t-98.5 -39.5q-56 0 -95.5 40t-39.5 95zM375 997q0 57 39.5 96.5t95.5 39.5q58 0 98.5 -39.5t40.5 -96.5q0 -56 -40.5 -95.5t-98.5 -39.5q-56 0 -95.5 40t-39.5 95z" />
<glyph unicode=";" horiz-adv-x="759" d="M375 137q6 61 44.5 97.5t92.5 33.5q61 -4 98 -45t37 -102q0 -52 -3.5 -87.5t-16 -89t-44 -103t-81.5 -95.5q-20 -17 -36 -16t-28 14q-11 10 -7 31t22 39q52 56 74 96.5t28 91.5q-24 -4 -53 -4q-56 0 -94.5 42t-32.5 97zM377 997q0 57 39.5 96.5t95.5 39.5 q58 0 98.5 -39.5t40.5 -96.5q0 -56 -40.5 -95.5t-98.5 -39.5q-56 0 -95.5 40t-39.5 95z" />
<glyph unicode="&#x3c;" horiz-adv-x="931" d="M162 438v103q0 18 12 26l617 410q12 8 20 3.5t8 -19.5v-87q0 -19 -20 -30l-529 -355l529 -354q20 -11 20 -31v-86q0 -15 -8 -19.5t-20 3.5l-617 410q-12 8 -12 26z" />
<glyph unicode="=" d="M125 266v90q0 15 14 15h744q14 0 14 -15v-90q0 -14 -14 -14h-744q-14 0 -14 14zM125 608v90q0 15 14 15h744q14 0 14 -15v-90q0 -14 -14 -14h-744q-14 0 -14 14z" />
<glyph unicode="&#x3e;" horiz-adv-x="937" d="M182 18v86q0 19 21 31l528 354l-528 355q-21 12 -21 30v87q0 15 8.5 19.5t20.5 -3.5l616 -410q13 -9 13 -26v-103q0 -17 -13 -26l-616 -410q-12 -8 -20.5 -3.5t-8.5 19.5z" />
<glyph unicode="?" horiz-adv-x="954" d="M184 1096q0 182 85.5 275t238.5 93q164 0 248 -84t84 -219q0 -78 -23.5 -146t-50.5 -107t-76 -97q-38 -47 -57.5 -73.5t-43 -68t-33 -85.5t-9.5 -97v-90q0 -14 -15 -14h-94q-14 0 -14 14v92q0 97 41.5 179t134.5 198q72 91 96.5 150t24.5 145q0 191 -203 191 q-56 0 -97 -15t-63.5 -37.5t-35 -58.5t-16 -68t-3.5 -77q0 -15 -14 -15h-90q-6 0 -10.5 4.5t-4.5 10.5zM356 135q0 57 40 96t96 39q59 0 99 -39t40 -96q0 -56 -40.5 -95.5t-98.5 -39.5q-56 0 -96 40t-40 95z" />
<glyph unicode="@" horiz-adv-x="1099" d="M100 498q0 460 275 460q143 0 193 -66t50 -212v-293q0 -45 1 -75.5t8 -75t19 -71.5t36.5 -47t58.5 -20q115 0 115 336v184q0 100 -8.5 183t-21.5 143.5t-35 108.5t-43 78.5t-51.5 52.5t-53.5 33.5t-56.5 17.5t-54 7t-51.5 1q-103 0 -176.5 -26t-124.5 -91q-17 -20 -35 -6 l-45 33q-14 14 0 31q126 160 381 157q54 -1 95.5 -6.5t93.5 -23t90 -48t76.5 -84.5t62.5 -128.5t39.5 -184.5t15.5 -248v-184q0 -116 -15 -200.5t-36 -128.5t-53 -69t-56 -30.5t-55 -5.5q-63 0 -104.5 28.5t-69.5 88.5q-25 -48 -75.5 -82.5t-120.5 -34.5q-56 0 -98.5 14.5 t-71 34.5t-48 60.5t-29.5 74t-15 95t-6 102.5t-1 117zM199 498q0 -98 3.5 -158.5t13 -112t29 -77t49 -39t75.5 -13.5q51 0 101 46t50 126v420q0 102 -27 136t-116 34q-55 0 -92 -29t-55 -84.5t-24.5 -113t-6.5 -135.5z" />
<glyph unicode="A" horiz-adv-x="948" d="M174 18l283 1409q4 19 18 19h76q14 0 18 -19l281 -1409q1 -4 0 -7q0 -11 -8 -11h-76q-13 0 -16 18l-60 283h-356l-58 -283q-3 -18 -16 -18h-76q-11 0 -11 12q0 3 1 6zM352 399h322l-158 897z" />
<glyph unicode="B" horiz-adv-x="1017" d="M197 14v1418q0 14 14 14h270q165 0 256.5 -84t91.5 -244q0 -36 -1 -56.5t-4.5 -61.5t-14 -69.5t-27.5 -62.5t-46 -60.5t-68 -45.5q99 -39 149.5 -130t50.5 -220q0 -68 -9 -124.5t-33 -111.5t-63 -92.5t-103.5 -60.5t-149.5 -23h-299q-14 0 -14 14zM295 98h203 q55 0 92.5 6t74 25.5t58 54t34.5 93t13 141.5q0 73 -21 128t-52.5 86t-75.5 50t-83 25t-83 6h-160v-615zM295 811h160q57 0 102 11.5t73.5 27t49 43.5t30 50t15 57.5t6 54t0.5 51.5v8q0 129 -65 181.5t-217 52.5h-154v-537z" />
<glyph unicode="C" horiz-adv-x="962" d="M197 328q-11 201 -11 400t11 396q17 342 338 342q339 0 339 -389q0 -12 -14 -12h-69q-5 0 -10 4t-5 10q-6 156 -55 222.5t-186 66.5q-135 0 -185.5 -69.5t-58.5 -239.5q-8 -223 -8 -329q1 -7 1 -13q0 -105 7 -303q2 -64 8 -110.5t22 -91.5t42 -72.5t69.5 -44.5t102.5 -17 q78 0 123.5 24.5t76.5 79.5q45 80 45 273q0 14 15 14h69q15 0 15 -14q0 -1 -0.5 -28t-1 -37t-2.5 -38.5t-4 -44t-6 -42.5t-9 -45.5t-12.5 -40.5t-16.5 -40q-81 -159 -292 -159q-84 0 -147.5 27t-97.5 64t-56 89.5t-28.5 89.5t-8.5 78z" />
<glyph unicode="D" horiz-adv-x="1038" d="M199 14v1418q0 14 14 14h332q58 0 106 -11.5t80 -29.5t57 -45t39 -51.5t24 -57.5t14 -54t7 -48q27 -200 27 -422q0 -201 -22 -420q-3 -31 -7 -53t-14 -56.5t-24.5 -59t-41.5 -52.5t-61.5 -45.5t-86.5 -29t-116 -11.5h-313q-14 0 -14 14zM297 98h248q59 0 100.5 13.5 t65 33t39 56.5t21 67.5t11.5 83.5q20 169 20 355v27q-2 201 -24 380q-5 49 -12 80t-23 63.5t-41 50t-67 29t-100 11.5h-238v-1250z" />
<glyph unicode="E" horiz-adv-x="919" d="M276 14v1418q0 6 4 10t9 4h551q14 0 14 -14v-72q0 -12 -14 -12h-465v-549h418q14 0 14 -15v-69q0 -15 -14 -15h-418v-602h481q6 0 10 -3.5t4 -6.5v-74q0 -14 -14 -14h-565q-5 0 -10 4t-5 10z" />
<glyph unicode="F" horiz-adv-x="907" d="M305 14v1418q0 14 12 14h551q15 0 15 -14v-72q0 -5 -4.5 -8.5t-10.5 -3.5h-465v-549h418q15 0 15 -15v-69q0 -6 -4.5 -10.5t-10.5 -4.5h-418v-686q0 -14 -14 -14h-70q-5 0 -9.5 4t-4.5 10z" />
<glyph unicode="G" horiz-adv-x="987" d="M207 328q-11 201 -11 400t11 396q17 342 338 342q82 0 144 -25t95 -60.5t53 -85.5t25.5 -89t5.5 -82v-14q0 -14 -14 -14h-68q-14 0 -14 14q-9 141 -57.5 199.5t-169.5 58.5q-135 0 -186.5 -70t-57.5 -239q-6 -154 -6 -315.5t6 -329.5q2 -64 8 -110t21 -91t40.5 -73 t67 -45t99.5 -17q233 0 233 313v271h-203q-14 0 -14 14v63q0 15 14 15h301v-740q0 -14 -14 -14h-61q-15 0 -15 14v84q-80 -118 -239 -118q-81 0 -143 27t-95.5 64.5t-55.5 89.5t-29 90t-9 77z" />
<glyph unicode="H" horiz-adv-x="995" d="M178 14v1420q0 5 4.5 8.5t10.5 3.5h69q14 0 14 -12v-635h472v635q0 4 4 8t8 4h71q13 0 13 -12v-1420q0 -14 -13 -14h-71q-12 0 -12 14v686h-472v-686q0 -14 -14 -14h-69q-15 0 -15 14z" />
<glyph unicode="I" horiz-adv-x="866" d="M233 14v70q0 14 15 14h215v1250h-215q-15 0 -15 14v70q0 14 15 14h528q15 0 15 -14v-70q0 -14 -15 -14h-215v-1250h215q15 0 15 -14v-70q0 -14 -15 -14h-528q-15 0 -15 14z" />
<glyph unicode="J" horiz-adv-x="925" d="M160 420q0 14 14 14h70q14 0 14 -14q0 -142 21 -209q21 -65 66 -94t120 -29q63 0 107 22t67 63t33 89t10 111v1059q0 5 4 9.5t10 4.5h70q6 0 10 -4.5t4 -9.5v-1059q0 -60 -5.5 -108t-25.5 -102t-53.5 -89.5t-94 -59.5t-142.5 -24q-65 0 -117 19t-85 50.5t-53 65t-30 70.5 q-14 55 -14 225z" />
<glyph unicode="K" horiz-adv-x="993" d="M254 14v1418q0 14 14 14h70q14 0 14 -14v-752l441 752q8 14 20 14h86q6 0 8 -4t-2 -10l-327 -562l354 -856q2 -4 2 -7q0 -7 -10 -7h-76q-14 0 -23 20l-313 752l-160 -270v-488q0 -14 -14 -14h-72q-12 0 -12 14z" />
<glyph unicode="L" horiz-adv-x="913" d="M311 14v1418q0 14 15 14h69q15 0 15 -14v-1334h450q14 0 14 -14v-70q0 -14 -14 -14h-534q-15 0 -15 14z" />
<glyph unicode="M" horiz-adv-x="1075" d="M100 14v1420q0 4 5 8t10 4h137q5 0 12 -23l248 -915l246 915q7 23 14 23h137q15 0 15 -14v-1418q0 -14 -15 -14h-69q-15 0 -15 14v1266l-262 -975q-3 -12 -6 -16t-10 -4h-70q-7 0 -10 4t-6 16l-262 975v-1266q0 -6 -4 -10t-9 -4h-71q-15 0 -15 14z" />
<glyph unicode="N" horiz-adv-x="1013" d="M162 14v1418q0 14 14 14h121q14 0 22 -25l445 -1278v1289q0 14 14 14h70q14 0 14 -14v-1418q0 -14 -14 -14h-125q-11 0 -16 16l-447 1307v-1309q0 -14 -14 -14h-70q-14 0 -14 14z" />
<glyph unicode="O" horiz-adv-x="1007" d="M174 328q-11 201 -11 400t11 396q17 342 338 342t338 -342q11 -197 11 -396t-11 -400q-2 -41 -8.5 -78t-28.5 -89.5t-56 -89.5t-97.5 -64t-147.5 -27t-147.5 27t-97.5 64t-56 89.5t-28.5 89.5t-8.5 78zM268 414q2 -64 8 -110.5t22 -91.5t42 -72.5t69.5 -44.5t102.5 -17 t102.5 17t69.5 44.5t42 72.5t22 91.5t8 110.5q6 168 6 329.5t-6 315.5q-6 169 -57.5 239t-186.5 70t-186.5 -70t-57.5 -239q-6 -154 -6 -315.5t6 -329.5z" />
<glyph unicode="P" horiz-adv-x="1001" d="M262 14v1418q0 14 14 14h299q103 0 168.5 -30.5t110.5 -90.5q70 -94 70 -262q0 -144 -47.5 -240.5t-139.5 -132.5q-39 -15 -79.5 -19.5t-165.5 -4.5h-132v-652q0 -14 -14 -14h-70q-14 0 -14 14zM360 764h179q57 0 83 1.5t57.5 9.5t55.5 26q90 67 90 270q0 178 -98 242 q-35 23 -74 29t-114 6h-179v-584z" />
<glyph unicode="Q" horiz-adv-x="1003" d="M174 328q-11 201 -11 400t11 396q17 342 338 342t338 -342q11 -197 11 -396t-11 -400q-11 -193 -121 -283l84 -113q11 -14 0 -22l-53 -41q-5 -4 -10 -4q-7 0 -13 8l-102 125q-53 -18 -123 -18q-84 0 -147.5 27t-97.5 64t-56 89.5t-28.5 89.5t-8.5 78zM268 414 q2 -64 8 -110.5t22 -91.5t42 -72.5t69.5 -44.5t102.5 -17t102.5 17t69.5 44.5t42 72.5t22 91.5t8 110.5q6 168 6 329.5t-6 315.5q-6 169 -57.5 239t-186.5 70t-186.5 -70t-57.5 -239q-6 -154 -6 -315.5t6 -329.5z" />
<glyph unicode="R" horiz-adv-x="972" d="M203 14v1418q0 14 14 14h299q99 0 163.5 -28.5t108.5 -86.5q66 -89 66 -252q0 -156 -47.5 -235.5t-142.5 -110.5l-19 -6l213 -713q1 -3 1 -6q0 -8 -11 -8h-76q-12 0 -18 18l-209 695h-244v-699q0 -14 -14 -14h-70q-14 0 -14 14zM301 811h178q43 0 67 1t60 8.5t62 21.5 q90 50 90 229q0 184 -90 242q-35 23 -74.5 29t-114.5 6h-178v-537z" />
<glyph unicode="S" d="M164 408v18q0 14 14 14h70q14 0 14 -14v-20q0 -328 248 -328q49 0 91.5 15.5t79 49t58 93.5t21.5 141q0 58 -14.5 103t-50.5 87t-78 76.5t-115 85.5q-130 89 -179 136q-135 126 -135 284q0 144 82.5 230.5t237.5 86.5q76 0 137.5 -26t99.5 -69.5t58 -97.5t20 -114v-14 q0 -12 -14 -12h-72q-14 0 -14 14q0 99 -58.5 160t-156.5 61q-221 0 -221 -219q0 -56 20 -103.5t65.5 -93t92 -80.5t127.5 -88q153 -101 209.5 -198t56.5 -209q0 -196 -94.5 -296.5t-253.5 -100.5q-98 0 -168 34.5t-107.5 97t-54 135t-16.5 161.5z" />
<glyph unicode="T" horiz-adv-x="913" d="M166 1362v70q0 14 14 14h662q14 0 14 -14v-70q0 -14 -14 -14h-281v-1334q0 -14 -14 -14h-70q-14 0 -14 14v1334h-283q-14 0 -14 14z" />
<glyph unicode="U" horiz-adv-x="993" d="M176 326v1106q0 14 14 14h70q14 0 14 -14v-1080q0 -128 59 -201t179 -73t179 73t59 201v1080q0 14 14 14h70q14 0 14 -14v-1106q0 -35 -7 -74t-29.5 -89.5t-57.5 -89.5t-98 -66t-144 -27t-144 27t-98 66t-57.5 89.5t-29.5 89.5t-7 74z" />
<glyph unicode="V" horiz-adv-x="929" d="M178 1427q-1 4 -1 8q0 11 11 11h72q13 0 16 -19l236 -1155l236 1155q3 19 16 19h72q11 0 11 -11q0 -3 -1 -8l-289 -1413q-3 -14 -12 -14h-66q-9 0 -12 14z" />
<glyph unicode="W" horiz-adv-x="1005" d="M119 1427q-1 7 2.5 13t9.5 6h74q5 0 9.5 -4t4.5 -10l86 -1196l164 663q6 21 18 21h70q12 0 18 -21l144 -663l86 1196q0 6 4.5 10t9.5 4h74q6 0 9.5 -6t2.5 -13l-117 -1411q0 -6 -4.5 -11t-9.5 -5h-72q-8 0 -14 18l-166 750l-186 -750q-6 -18 -14 -18h-72q-5 0 -9.5 5 t-4.5 11z" />
<glyph unicode="X" horiz-adv-x="911" d="M201 14l258 723l-248 697q-1 4 1 8t7 4h82q11 0 14 -12l199 -574l199 574q3 12 14 12h82q5 0 7 -4t1 -8l-252 -701l258 -719q1 -4 1 -6q0 -8 -7 -8h-86q-9 0 -12 14l-207 602l-207 -602q-3 -14 -12 -14h-86q-7 0 -7 8q0 2 1 6z" />
<glyph unicode="Y" horiz-adv-x="915" d="M178 1430q-1 4 -1 6q0 10 13 10h80q11 0 17 -19l217 -667l225 667q6 19 19 19h83q14 0 14 -10q0 -3 -1 -6l-291 -783v-633q0 -14 -12 -14h-74q-12 0 -12 14v633z" />
<glyph unicode="Z" horiz-adv-x="909" d="M178 14v107q0 7 27 74l514 1153h-506q-14 0 -14 14v70q0 14 14 14h582q14 0 14 -14v-107q0 -17 -18 -53l-519 -1174h559q15 0 15 -14v-70q0 -5 -4.5 -9.5t-10.5 -4.5h-638q-15 0 -15 14z" />
<glyph unicode="[" horiz-adv-x="659" d="M387 -150v1663q0 15 14 15h220q14 0 14 -15v-69q0 -14 -14 -14h-136v-1496h136q14 0 14 -14v-70q0 -14 -14 -14h-220q-14 0 -14 14z" />
<glyph unicode="\" horiz-adv-x="817" d="M283 1427q-6 19 12 19h67q16 0 21 -19l358 -1409q6 -18 -12 -18h-67q-16 0 -21 18z" />
<glyph unicode="]" horiz-adv-x="786" d="M387 -80q0 14 14 14h136v1496h-136q-14 0 -14 14v69q0 15 14 15h220q14 0 14 -15v-1663q0 -14 -14 -14h-220q-14 0 -14 14v70z" />
<glyph unicode="^" horiz-adv-x="974" d="M176.5 1129q-2.5 8 3.5 16l301 321q13 13 31 13t31 -13l301 -321q6 -8 3.5 -16t-11.5 -13l-35 -18q-31 -17 -60 12l-229 223l-229 -223q-29 -29 -60 -12l-35 18q-9 5 -11.5 13z" />
<glyph unicode="_" horiz-adv-x="1050" d="M-102 -182q0 14 14 14h1200q14 0 14 -14v-90q0 -15 -14 -15h-1200q-14 0 -14 15v90z" />
<glyph unicode="`" horiz-adv-x="835" d="M315 1395q0 65 70 65q29 0 49.5 -12t50.5 -49l215 -264q6 -6 5 -15.5t-9 -15.5l-24 -19q-15 -12 -29 2l-291 236q-37 33 -37 72z" />
<glyph unicode="a" horiz-adv-x="983" d="M178 254q0 58 18 104.5t53.5 81t65 54t76.5 45.5l324 174q0 134 -43 184.5t-166 50.5q-38 0 -69.5 -8.5t-51.5 -18t-36 -29.5t-23.5 -30.5t-14 -34.5t-7 -27t-3.5 -22q-2 -12 -12 -12l-74 4q-10 0 -10 10q0 112 83 189.5t220 77.5q305 0 305 -291v-668h76q16 0 16 -14 v-60q0 -14 -16 -14h-103q-30 0 -38 27l-17 51q-69 -98 -272 -98q-121 0 -201 82.5t-80 191.5zM276 252q0 -27 11 -56t32.5 -56t61 -44.5t90.5 -17.5q53 0 93.5 10t76 34t55 71t19.5 116v295l-297 -164q-78 -43 -110 -83t-32 -105z" />
<glyph unicode="b" d="M215 12v1420q0 14 12 14h74q12 0 12 -14v-467q69 82 213 82q24 0 47 -2.5t59 -13t66 -28t62.5 -51.5t55.5 -80t37.5 -116.5t14.5 -157.5v-188q0 -51 -6.5 -100.5t-28.5 -112t-57 -108t-100 -77.5t-150 -32q-136 0 -211 108v-76q0 -12 -10 -12h-78q-12 0 -12 12zM313 369 q0 -132 60.5 -211.5t152.5 -79.5q42 0 74.5 8t65.5 32.5t55 65.5t35.5 110t13.5 163v90q0 71 -5 124.5t-20 108t-41 89.5t-71 57t-107 22q-106 0 -159.5 -68t-53.5 -182v-329z" />
<glyph unicode="c" horiz-adv-x="987" d="M217 410v188q0 87 14.5 158t37.5 116.5t55.5 80t62.5 52t66 27.5t59 12.5t47 2.5q28 0 55.5 -3.5t69.5 -19t76 -40.5t67 -73.5t50 -113.5q3 -13 -11 -17l-69 -16q-14 -3 -17 10q-47 174 -221 174q-61 0 -105.5 -21.5t-71 -56t-42 -88.5t-20.5 -108.5t-5 -126.5v-90 q0 -94 13.5 -163t35.5 -110t55 -65.5t65.5 -32.5t74.5 -8q41 0 73 8.5t64.5 30t55.5 65.5t36 109q3 13 17 8l72 -14q11 -2 11 -13q0 -3 -1 -6q-9 -44 -24 -82t-41.5 -76.5t-61.5 -66t-86.5 -44.5t-114.5 -17q-85 0 -150 32t-100 77.5t-57 108t-28.5 112t-6.5 100.5z" />
<glyph unicode="d" horiz-adv-x="966" d="M164 410v188q0 87 14.5 157.5t37.5 116.5t55.5 80t62.5 51.5t66 28t59 13t47 2.5q144 0 213 -82v467q0 14 12 14h74q12 0 12 -14v-1420q0 -12 -12 -12h-78q-10 0 -10 12v76q-75 -108 -211 -108q-85 0 -150 32t-100 77.5t-57 108t-28.5 112t-6.5 100.5zM262 457 q0 -94 13.5 -163t35.5 -110t55 -65.5t65.5 -32.5t74.5 -8q92 0 152.5 75.5t60.5 206.5v338q0 114 -53.5 182t-159.5 68q-62 0 -107 -22t-71 -57t-41 -89.5t-20 -108t-5 -124.5v-90z" />
<glyph unicode="e" horiz-adv-x="997" d="M199 410v188q0 208 86.5 328.5t242.5 120.5q73 0 131 -25.5t94.5 -68t60.5 -100.5t34 -118t10 -127v-67q0 -26 -11.5 -37.5t-37.5 -11.5h-512v-35q0 -94 13.5 -163t35.5 -110t55 -65.5t65.5 -32.5t74.5 -8q84 0 141 41t84 149q3 12 16 8l70 -16q12 -3 10 -18 q-12 -50 -33.5 -92t-58 -82.5t-95.5 -64t-134 -23.5q-85 0 -150 32t-100 77.5t-57 108t-28.5 112t-6.5 100.5zM297 590h463q0 358 -232 358q-231 0 -231 -358z" />
<glyph unicode="f" horiz-adv-x="831" d="M215 963v59q0 14 14 14h185v178q0 129 53.5 180.5t150.5 51.5h136q4 0 8 -4t4 -8v-72q0 -14 -14 -14h-129q-76 0 -93.5 -34t-17.5 -171v-107h205q14 0 14 -14v-59q0 -15 -14 -15h-205v-934q0 -14 -14 -14h-70q-14 0 -14 14v934h-185q-14 0 -14 15z" />
<glyph unicode="g" horiz-adv-x="952" d="M176 428v193q0 122 35 216.5t111 152t184 57.5q37 0 60.5 -2.5t65 -20t75.5 -51.5v49q0 14 14 14h70q14 0 14 -14v-1120q0 -116 -73.5 -191.5t-227.5 -75.5h-162q-14 0 -14 15v69q0 15 14 15h162q115 0 159 45.5t44 138.5v119q-47 -36 -95 -46.5t-114 -10.5q-21 0 -43 3 t-55 14.5t-62 29.5t-59.5 52.5t-52.5 80t-36 115t-14 153.5zM274 444q0 -366 232 -366q201 0 201 203v407q0 130 -43.5 195t-151.5 65q-238 0 -238 -346v-158z" />
<glyph unicode="h" horiz-adv-x="974" d="M233 14v1418q0 14 15 14h69q15 0 15 -14v-545q61 70 140 115t157 45q114 0 158 -68.5t44 -204.5v-760q0 -14 -14 -14h-69q-15 0 -15 14v676v6q0 164 -15.5 208t-92.5 44q-61 0 -129.5 -44.5t-116 -119.5t-47.5 -151v-619q0 -14 -15 -14h-69q-15 0 -15 14z" />
<glyph unicode="i" horiz-adv-x="768" d="M272 952v70q0 14 15 14h305q14 0 14 -14v-1008q0 -14 -14 -14h-70q-14 0 -14 14v924h-221q-15 0 -15 14zM422 1343q0 43 29 72t71 29q44 0 74.5 -29t30.5 -72q0 -42 -30.5 -72t-74.5 -30q-41 0 -70.5 30.5t-29.5 71.5z" />
<glyph unicode="j" horiz-adv-x="831" d="M231 -150q0 5 3 10q4 7 10 9l61 20q15 4 19 -12q25 -83 49.5 -118t72.5 -35q77 0 107.5 35t30.5 124v1055h-199q-14 0 -14 14v70q0 14 14 14h283q14 0 14 -14v-1137q0 -129 -57 -194.5t-179 -65.5q-215 0 -215 225zM508 1343q0 43 29 72t71 29q44 0 74.5 -29t30.5 -72 q0 -42 -30.5 -72t-74.5 -30q-41 0 -70.5 30.5t-29.5 71.5z" />
<glyph unicode="k" horiz-adv-x="972" d="M262 14v1418q0 14 14 14h70q14 0 14 -14v-979l355 563q13 20 24 20h90q5 0 7 -4.5t0 -7.5l-246 -391l291 -619q2 -4 2 -6t-1 -4q-2 -4 -5 -4h-86q-12 0 -19 14l-244 523l-168 -267v-256q0 -14 -14 -14h-70q-14 0 -14 14z" />
<glyph unicode="l" horiz-adv-x="768" d="M283 1362v70q0 14 14 14h305q14 0 14 -14v-1418q0 -14 -14 -14h-70q-14 0 -14 14v1334h-221q-14 0 -14 14z" />
<glyph unicode="m" horiz-adv-x="1026" d="M147 14v1008q0 14 15 14h69q15 0 15 -14v-45q28 35 60 52.5t93 17.5q35 0 60 -8t40 -23t22.5 -27.5t15.5 -32.5q56 91 182 91q43 0 72.5 -12.5t46.5 -32t25.5 -56.5t11 -72t2.5 -92v-768q0 -14 -15 -14h-69q-15 0 -15 14v676q0 172 -10.5 215t-56.5 43t-77.5 -27 t-46.5 -73t-20.5 -89t-5.5 -93v-652q0 -14 -14 -14h-70q-14 0 -14 14v676q0 62 -0.5 97t-3 68t-6.5 48t-12.5 27t-18.5 15t-27 3q-46 0 -77.5 -27t-46 -73t-20 -89t-5.5 -93v-652q0 -14 -15 -14h-69q-15 0 -15 14z" />
<glyph unicode="n" horiz-adv-x="972" d="M213 14v1008q0 14 14 14h70q14 0 14 -14v-135q61 70 140 115t157 45q114 0 158.5 -68.5t44.5 -204.5v-760q0 -14 -14 -14h-70q-14 0 -14 14v676q0 168 -16 213t-93 45q-61 0 -129.5 -44.5t-116 -119.5t-47.5 -151v-619q0 -14 -14 -14h-70q-14 0 -14 14z" />
<glyph unicode="o" horiz-adv-x="1011" d="M170 410v188q0 87 14.5 157.5t37.5 116.5t55.5 80t62.5 51.5t66 28t59 13t47 2.5t47 -2.5t59 -13t66 -28t62.5 -51.5t55.5 -80t37.5 -116.5t14.5 -157.5v-188q0 -51 -6.5 -100.5t-28.5 -112t-57 -108t-100 -77.5t-150 -32t-150 32t-100 77.5t-57 108t-28.5 112 t-6.5 100.5zM268 457q0 -94 13.5 -163t35.5 -110t55 -65.5t65.5 -32.5t74.5 -8t74.5 8t65.5 32.5t55 65.5t35.5 110t13.5 163v90q0 71 -5 124.5t-20 108t-41 89.5t-71 57t-107 22t-107 -22t-71 -57t-41 -89.5t-20 -108t-5 -124.5v-90z" />
<glyph unicode="p" horiz-adv-x="1011" d="M238 -350v1372q0 14 14 14h70q14 0 14 -14v-49q34 34 75.5 51.5t65 20t60.5 2.5q160 0 244.5 -119t84.5 -307v-193q0 -84 -14 -153.5t-36 -115t-52.5 -80t-59.5 -52.5t-61.5 -29.5t-54.5 -14.5t-43 -3q-66 0 -114 10.5t-95 46.5v-387q0 -15 -14 -15h-70q-14 0 -14 15z M336 281q0 -203 201 -203q231 0 231 366v158q0 346 -238 346q-108 0 -151 -65t-43 -195v-407z" />
<glyph unicode="q" horiz-adv-x="954" d="M176 428v193q0 122 35 216.5t111 152t184 57.5q37 0 60.5 -2.5t65 -20t75.5 -51.5v49q0 14 14 14h70q14 0 14 -14v-1372q0 -15 -14 -15h-70q-14 0 -14 15v387q-47 -36 -95 -46.5t-114 -10.5q-21 0 -43 3t-55 14.5t-62 29.5t-59.5 52.5t-52.5 80t-36 115t-14 153.5z M274 444q0 -366 232 -366q201 0 201 203v407q0 130 -43.5 195t-151.5 65q-238 0 -238 -346v-158z" />
<glyph unicode="r" horiz-adv-x="929" d="M342 14v1008q0 14 14 14h70q14 0 14 -14v-131q84 87 139 121.5t113 34.5q44 0 76 -14t47.5 -37t22 -45t6.5 -44v-43q0 -14 -15 -14h-69q-15 0 -15 14v29q0 55 -51 55q-48 0 -108 -53q-70 -61 -108 -122.5t-38 -141.5v-617q0 -14 -14 -14h-70q-14 0 -14 14z" />
<glyph unicode="s" horiz-adv-x="950" d="M201 297v16q0 6 4.5 10.5t9.5 4.5h70q14 0 14 -15v-16q0 -61 18.5 -105.5t50 -68t67 -34.5t75.5 -11q109 0 162 61.5t53 147.5q0 37 -12 67t-32 51t-48.5 39.5t-59 32.5t-66.5 30q-9 3 -13 5q-31 13 -42 18t-40 19t-41 21.5t-36 23.5t-34.5 28.5t-26.5 32t-23 39 t-12.5 44.5t-5.5 53q0 62 20 109.5t49.5 74.5t68.5 44t71.5 22.5t63.5 5.5q115 0 194.5 -60.5t79.5 -185.5v-19q0 -14 -14 -14h-70q-14 0 -14 14v25q0 73 -49 107t-127 34q-76 0 -125 -36.5t-49 -118.5q0 -26 6 -47t20 -38t27.5 -29.5t39 -26t42.5 -21t49.5 -21.5t50.5 -22 q57 -27 93.5 -48t78.5 -56t63 -82t21 -105q0 -37 -7.5 -75.5t-29 -83t-54.5 -78.5t-90.5 -57t-131.5 -23q-60 0 -114 18.5t-98.5 55.5t-70.5 99.5t-26 143.5z" />
<glyph unicode="t" horiz-adv-x="888" d="M303 963v59q0 14 14 14h154v396q0 14 14 14h70q14 0 14 -14v-396h176q15 0 15 -14v-59q0 -6 -4.5 -10.5t-10.5 -4.5h-176v-645q0 -137 17.5 -171t93.5 -34h108q15 0 15 -14v-72q0 -4 -3.5 -8t-8.5 -4h-115q-97 0 -151 51t-54 180v717h-154q-14 0 -14 15z" />
<glyph unicode="u" horiz-adv-x="964" d="M213 274v748q0 14 14 14h70q14 0 14 -14v-709q0 -52 2 -85t9 -64.5t20.5 -48.5t36 -27t55.5 -10q60 0 123 34t109.5 100.5t46.5 145.5v664q0 14 14 14h70q14 0 14 -14v-1008q0 -14 -14 -14h-70q-14 0 -14 14v101q-54 -60 -128 -97.5t-155 -37.5q-217 0 -217 294z" />
<glyph unicode="v" horiz-adv-x="983" d="M152 1022q-1 4 -1 7q0 7 7 7h80q12 0 18 -22l256 -891l256 891q6 22 18 22h80q7 0 7 -7q0 -3 -1 -7l-292 -1004q-5 -18 -21 -18h-94q-16 0 -21 18z" />
<glyph unicode="w" horiz-adv-x="1044" d="M104 1018q-1 4 -1 7q0 11 10 11h75q16 0 19 -22l102 -891l142 543q5 22 18 22h86q13 0 18 -22l142 -543l102 891q3 22 19 22h75q10 0 10 -11q0 -3 -1 -7l-127 -1000q-3 -18 -21 -18h-94q-16 0 -21 18l-145 525l-145 -525q-5 -18 -21 -18h-94q-18 0 -21 18z" />
<glyph unicode="x" horiz-adv-x="958" d="M162 14l301 537l-250 473q-3 4 0 8t8 4h90q9 0 15 -12l202 -379l201 379q6 12 14 12h91q5 0 8 -4t0 -8l-260 -483l280 -527q2 -5 2 -8q0 -6 -8 -6h-90q-9 0 -16 14l-232 443l-244 -443q-7 -14 -16 -14h-90q-8 0 -8 6q0 3 2 8z" />
<glyph unicode="y" horiz-adv-x="935" d="M164 1022q-1 4 -1 7q0 7 7 7h80q12 0 18 -22l260 -891l226 891q6 22 18 22h80q7 0 7 -7q0 -3 -1 -7l-332 -1301q-18 -67 -53.5 -99t-97.5 -32h-107q-14 0 -14 15v69q0 15 14 15h92q38 0 51.5 15t28.5 75l41 164z" />
<glyph unicode="z" horiz-adv-x="905" d="M197 952v70q0 14 14 14h557q14 0 14 -14v-92q0 -24 -8 -37l-479 -795h516q14 0 14 -14v-70q0 -14 -14 -14h-596q-14 0 -14 14v92q0 30 24 66l463 766h-477q-14 0 -14 14z" />
<glyph unicode="{" horiz-adv-x="786" d="M225 641v49v49q0 12 8 15q46 13 79.5 37t59.5 65.5t39 105t13 150.5v41q0 67 2 105.5t18 94.5t48 91q26 31 59 50t75.5 26.5t73.5 9.5t84 2q15 0 15 -14v-70q0 -14 -15 -14q-50 0 -83 -1.5t-62.5 -9t-46.5 -16t-31.5 -29t-21 -40.5t-11 -58.5t-5.5 -75t-1 -98.5 q0 -108 -15.5 -182.5t-57.5 -132.5q-11 -14 -21 -25t-17.5 -18t-20.5 -16t-19 -12.5t-25 -14t-27 -15.5q10 -6 27.5 -15.5t24.5 -13.5t19.5 -12.5t20 -15.5t17.5 -18t21 -25q42 -58 57.5 -133t15.5 -183q0 -61 1 -98t5.5 -75.5t11 -58.5t21 -40.5t31.5 -28.5t46.5 -15.5 t62.5 -9t83 -1.5q6 0 10.5 -4.5t4.5 -10.5v-69q0 -6 -4.5 -10.5t-10.5 -4.5q-52 0 -84 2t-74 10t-74.5 27t-59.5 50q-32 35 -48 90.5t-18 94t-2 105.5v41q0 114 -24 190t-64.5 114t-102.5 55q-8 3 -8 14z" />
<glyph unicode="|" horiz-adv-x="712" d="M463 -215v1814q0 15 14 15h70q14 0 14 -15v-1814q0 -14 -14 -14h-70q-14 0 -14 14z" />
<glyph unicode="}" horiz-adv-x="915" d="M225 -68q0 6 4.5 10.5t10.5 4.5q50 0 83 1.5t62.5 9t46.5 15.5t31.5 28.5t21 40.5t11 58.5t5.5 75.5t1 98q0 108 15.5 183t57.5 133q13 17 23 28.5t25 22t21 14.5t29.5 17t31.5 18q-8 5 -27 15.5t-25 14t-19 12.5t-20.5 16t-17.5 18t-21 25q-42 58 -57.5 132.5 t-15.5 182.5q0 62 -1 98.5t-5.5 75t-11 58.5t-21 40.5t-31.5 29t-46.5 16t-62.5 9t-83 1.5q-15 0 -15 14v70q0 14 15 14q53 0 84 -2t73.5 -9.5t75.5 -26.5t59 -50q32 -35 48 -91t18 -94.5t2 -105.5v-41q0 -87 13 -150.5t39 -105t59.5 -65.5t79.5 -37q8 -3 8 -15v-49v-49 q0 -11 -8 -14q-62 -17 -102.5 -55t-64.5 -114t-24 -190v-41q0 -67 -2 -105.5t-18 -94t-48 -90.5q-27 -31 -59.5 -50t-74.5 -27t-74 -10t-84 -2q-6 0 -10.5 4.5t-4.5 10.5v69z" />
<glyph unicode="~" horiz-adv-x="1148" d="M37 440q-17 14 2 43q43 57 116 100.5t156 43.5q22 0 41 -3t40.5 -10.5t35 -13t43 -20t45.5 -21.5q18 -9 54.5 -26.5t49 -23t35.5 -14.5t39.5 -11.5t34.5 -2.5t35 3.5t31.5 11t26 14t23.5 19.5t19 20t16.5 22.5t12.5 20.5t11 20l9 15q3 6 13.5 8t19.5 -4l39 -21 q25 -14 -12 -75q-38 -66 -101.5 -109t-142.5 -43q-73 0 -184 53q-13 6 -58 29t-66 33t-53.5 20t-56.5 10q-96 0 -182 -92l-23 -24q-12 -12 -26 -2z" />
<glyph unicode="&#xa1;" horiz-adv-x="780" d="M375 944q0 56 40.5 95.5t98.5 39.5q56 0 95.5 -39.5t39.5 -95.5q0 -57 -39.5 -96t-95.5 -39q-59 0 -99 39t-40 96zM424 -352l27 989q0 14 14 14h102q5 0 9 -4t4 -10l26 -989q0 -15 -14 -15h-154q-14 0 -14 15z" />
<glyph unicode="&#xa2;" horiz-adv-x="937" d="M178 410v188q0 76 11.5 140t30.5 108t46 78.5t54 55t59 35t57.5 20.5t52.5 9v164q0 6 4.5 10.5t10.5 4.5h69q6 0 10.5 -4.5t4.5 -10.5v-166q202 -28 254 -270q3 -12 -11 -16l-71 -15q-13 -3 -17 11q-19 98 -65 147t-148 49q-77 0 -129 -31.5t-78.5 -90.5t-36.5 -125 t-10 -154v-90q0 -94 13.5 -163t35.5 -110t55 -65.5t65.5 -32.5t74.5 -8q84 0 141 41t84 149q3 13 17 8l69 -16q13 -3 11 -18q-11 -44 -29 -82t-47.5 -75t-75 -63t-102.5 -36v-138q0 -14 -15 -14h-69q-15 0 -15 14v134q-56 4 -102.5 22.5t-78 45.5t-56 64.5t-38 74.5t-22 79 t-11.5 75t-3 67z" />
<glyph unicode="&#xa3;" horiz-adv-x="944" d="M125 10v76q0 9 10 12q164 46 180 322l19 289h-144q-14 0 -14 14v74q0 14 14 14h150l20 309q11 171 69.5 258.5t191.5 87.5q86 0 142.5 -31t92.5 -126q8 -20 -6 -23l-70 -22q-15 -4 -20 10q-18 57 -48 75.5t-91 18.5q-25 0 -45 -4.5t-35 -14.5t-26 -21t-19 -30.5t-13 -35 t-8.5 -42t-5.5 -45.5t-4 -51l-25 -311h236q14 0 14 -14v-76q0 -14 -14 -14h-242l-20 -322q-7 -141 -82 -258q147 9 311.5 -11t239.5 -20q16 0 16 -12v-74q0 -12 -16 -12q-96 0 -241 15.5t-262 15.5t-241 -31q-14 -3 -14 10z" />
<glyph unicode="&#xa5;" horiz-adv-x="970" d="M172 446v70q0 14 14 14h269v115h-269q-14 0 -14 14v70q0 14 14 14h234l-242 687q-5 16 12 16h80q11 0 17 -19l217 -667l225 667q6 19 19 19h83q18 0 13 -16l-256 -687h248q14 0 14 -14v-70q0 -14 -14 -14h-283v-115h283q14 0 14 -14v-70q0 -14 -14 -14h-283v-418 q0 -14 -12 -14h-74q-12 0 -12 14v418h-269q-14 0 -14 14z" />
<glyph unicode="&#xa6;" horiz-adv-x="708" d="M463 -213v702q0 15 14 15h70q14 0 14 -15v-702q0 -14 -14 -14h-70q-14 0 -14 14zM463 844v755q0 15 14 15h70q14 0 14 -15v-755q0 -15 -14 -15h-70q-14 0 -14 15z" />
<glyph unicode="&#xa7;" horiz-adv-x="1040" d="M98 778q0 117 78.5 194.5t194.5 88.5q-121 127 -121 239q0 121 77.5 201t211.5 80q140 0 213 -82.5t73 -212.5q0 -14 -12 -14h-74q-14 0 -14 14q0 197 -186 197q-83 0 -138.5 -49t-52.5 -134q1 -52 38 -104.5t120 -130.5l248 -236q101 -96 135.5 -161t34.5 -146 q0 -124 -52 -199t-174 -124q103 -115 103 -226q0 -142 -71 -230.5t-206 -88.5q-124 0 -202 82t-78 239q0 15 14 15h70q14 0 14 -15q0 -110 46.5 -166.5t135.5 -56.5q178 0 178 223q0 48 -45 116t-120 140l-308 289q-73 70 -102 129t-29 129zM197 776q0 -65 38 -116.5 t134 -137.5l262 -241q116 36 155 89.5t39 151.5q0 97 -96 193l-207 200q-31 31 -61 39.5t-74 8.5q-40 0 -81.5 -18t-75 -62.5t-33.5 -106.5z" />
<glyph unicode="&#xa8;" horiz-adv-x="950" d="M215 1274q0 40 28 68t66 28q40 0 68.5 -28t28.5 -68q0 -38 -28.5 -66t-68.5 -28q-38 0 -66 28t-28 66zM616 1274q0 40 28 68t67 28q40 0 68 -28t28 -68q0 -38 -28 -66t-68 -28q-38 0 -66.5 28t-28.5 66z" />
<glyph unicode="&#xa9;" horiz-adv-x="1130" d="M25 594q0 105 18 194t56 163t94.5 126t137.5 80.5t181 28.5t180.5 -28.5t137 -80.5t95 -126t56.5 -163t18 -194q0 -131 -29 -237.5t-86.5 -186.5t-152.5 -124t-219 -44q-125 0 -220 44t-152.5 124.5t-86 186.5t-28.5 237zM129 594q0 -104 17.5 -186t58.5 -152 t118.5 -108.5t188.5 -38.5q110 0 186 35t118 102.5t59.5 151.5t17.5 196q0 109 -18 192t-59 152t-118 106t-186 37q-89 0 -156.5 -25t-110 -67.5t-69 -106t-37 -133t-10.5 -155.5zM311 625q0 43 1.5 72t7.5 69.5t20 67t36 52t58.5 38t85.5 12.5q113 0 152 -90q13 -31 -2 -39 l-33 -14q-24 -10 -37 12q-23 47 -86 47q-39 0 -64.5 -16t-38 -48.5t-17.5 -70t-5 -92.5q0 -72 5 -119.5t18 -88t40 -60t68 -19.5q38 0 56.5 7.5t35.5 31.5q15 23 37 10l27 -14q16 -11 4 -37q-8 -16 -16.5 -27.5t-26.5 -25.5t-49 -21.5t-74 -7.5q-47 0 -83 16t-57.5 48 t-35 64.5t-19 81t-7 81t-1.5 80.5z" />
<glyph unicode="&#xaa;" horiz-adv-x="890" d="M268 958q0 39 12.5 70.5t36.5 54.5t44 36.5t49 29.5l196 106q-2 67 -27.5 96t-89.5 29q-35 0 -60 -10.5t-36 -26.5t-15.5 -28.5t-4.5 -22.5q0 -24 -25 -24h-41q-20 0 -20 24q0 75 56.5 125.5t148.5 50.5q202 0 202 -192v-406h37q23 0 23 -22v-37q0 -23 -23 -23h-74 q-18 0 -26 19l-8 16q-47 -47 -164 -47q-83 0 -137 54t-54 128zM358 956q0 -33 27.5 -62.5t81.5 -29.5q139 0 139 131v162l-168 -92q-42 -23 -61 -47t-19 -62z" />
<glyph unicode="&#xab;" horiz-adv-x="980" d="M176 426q0 18 10 31l277 360q6 7 15 4t14 -12l6 -12q7 -14 3 -37.5t-16 -42.5l-198 -291l198 -311q13 -17 17 -42t-4 -38l-6 -12q-5 -9 -14 -12.5t-15 3.5l-277 381q-10 13 -10 31zM522 426q0 18 10 31l277 360q6 7 15 4t14 -12l6 -12q7 -14 3 -37.5t-16 -42.5l-198 -291 l198 -311q12 -19 16 -42.5t-3 -37.5l-6 -12q-5 -9 -14 -12.5t-15 3.5l-277 381q-10 13 -10 31z" />
<glyph unicode="&#xac;" horiz-adv-x="919" d="M129 465v70q0 14 14 14h611q14 0 14 -14v-293q0 -15 -14 -15h-70q-14 0 -14 15v209h-527q-14 0 -14 14z" />
<glyph unicode="&#xad;" horiz-adv-x="1007" d="M166 424v90q0 14 14 14h662q14 0 14 -14v-90q0 -14 -14 -14h-662q-14 0 -14 14z" />
<glyph unicode="&#xae;" horiz-adv-x="1130" d="M25 594q0 105 18 194t56 163t94.5 126t137.5 80.5t181 28.5t180.5 -28.5t137 -80.5t95 -126t56.5 -163t18 -194q0 -131 -29 -237.5t-86.5 -186.5t-152.5 -124t-219 -44q-125 0 -220 44t-152.5 124.5t-86 186.5t-28.5 237zM129 594q0 -104 17.5 -186t58.5 -152 t118.5 -108.5t188.5 -38.5q110 0 186 35t118 102.5t59.5 151.5t17.5 196q0 109 -18 192t-59 152t-118 106t-186 37q-89 0 -156.5 -25t-110 -67.5t-69 -106t-37 -133t-10.5 -155.5zM360 293v598q0 13 7 24t20 11h129q100 0 137 -41t37 -144q0 -69 -20.5 -110t-67.5 -66 l100 -276q3 -9 -0.5 -15t-11.5 -6h-53q-18 0 -29 31l-90 250h-72v-256q0 -25 -22 -25h-43q-21 0 -21 25zM446 633h72q40 0 65 25.5t25 84.5q0 56 -18.5 76.5t-59.5 20.5h-84v-207z" />
<glyph unicode="&#xaf;" horiz-adv-x="968" d="M207 1217v81q0 8 5.5 13.5t12.5 5.5h572q7 0 12.5 -5.5t5.5 -13.5v-81q0 -8 -5.5 -13.5t-12.5 -5.5h-572q-7 0 -12.5 5.5t-5.5 13.5z" />
<glyph unicode="&#xb0;" horiz-adv-x="903" d="M246 1178v32q0 110 79 189.5t189 79.5q109 0 186.5 -79.5t77.5 -189.5v-32q0 -110 -77.5 -189.5t-186.5 -79.5q-110 0 -189 79.5t-79 189.5zM338 1178q0 -77 50 -127t126 -50q73 0 123.5 50.5t50.5 126.5v32q0 74 -51 125t-123 51q-76 0 -126 -50.5t-50 -125.5v-32z" />
<glyph unicode="&#xb1;" horiz-adv-x="987" d="M113 14v70q0 14 14 14h770q14 0 14 -14v-70q0 -14 -14 -14h-770q-14 0 -14 14zM113 772v70q0 14 14 14h336v336q0 14 14 14h70q14 0 14 -14v-336h336q14 0 14 -14v-70q0 -14 -14 -14h-336v-330q0 -14 -14 -14h-70q-14 0 -14 14v330h-336q-14 0 -14 14z" />
<glyph unicode="&#xb2;" horiz-adv-x="806" d="M340 1278v20q0 74 43.5 121t126.5 47q81 0 124.5 -49.5t43.5 -126.5q0 -49 -37.5 -115t-99.5 -133q-49 -50 -74.5 -97t-28.5 -105h217q12 0 20.5 -10t8.5 -21v-39q0 -12 -8.5 -20.5t-20.5 -8.5h-284q-10 0 -19.5 9t-9.5 20v74q0 65 41 138t90 124q49 49 79 98.5t30 85.5 q0 82 -72 82q-34 0 -56 -22t-22 -60v-12q0 -9 -6 -16t-16 -7h-48q-22 0 -22 23z" />
<glyph unicode="&#xb3;" horiz-adv-x="821" d="M334 889v14q0 27 22 27h45q8 0 16.5 -9t8.5 -18v-14q0 -17 2 -28t9 -23.5t23 -18.5t40 -6q42 0 66.5 23t27.5 53q3 20 2.5 57.5t-2.5 54.5q-8 48 -22 64t-56 16h-12q-12 0 -21.5 7t-9.5 20v35q0 9 10 16.5t21 7.5q50 0 70 22t20 93q0 39 -18.5 59.5t-63.5 20.5 q-82 0 -82 -57v-13q0 -9 -8 -18.5t-14 -9.5h-46q-10 0 -17 9t-7 19v11q0 68 44 110.5t130 42.5q84 0 126 -49t42 -125q0 -107 -49 -152q57 -31 57 -180q0 -114 -44 -171.5t-144 -57.5q-81 0 -123.5 47.5t-42.5 120.5z" />
<glyph unicode="&#xb4;" horiz-adv-x="804" d="M317 1119.5q-1 9.5 5 15.5l215 264q30 37 50.5 49t49.5 12q70 0 70 -65q0 -39 -37 -72l-291 -236q-14 -14 -29 -2l-24 19q-8 6 -9 15.5z" />
<glyph unicode="&#xb5;" horiz-adv-x="983" d="M233 -350v1196q0 14 15 14h69q15 0 15 -14v-533q0 -52 2 -85t9 -64.5t20.5 -48.5t36 -27t55.5 -10q60 0 123 34t109 100.5t46 145.5v488q0 14 15 14h69q14 0 14 -14v-832q0 -14 -14 -14h-69q-15 0 -15 14v101q-54 -61 -127.5 -98t-154.5 -37q-73 0 -119 30v-360 q0 -6 -4.5 -10.5t-10.5 -4.5h-69q-6 0 -10.5 4.5t-4.5 10.5z" />
<glyph unicode="&#xb6;" horiz-adv-x="1017" d="M84 1055q0 205 84.5 298t243.5 93h512q14 0 14 -14v-70q0 -14 -14 -14h-156v-1334q0 -14 -14 -14h-70q-14 0 -14 14v1334h-203v-1334q0 -14 -14 -14h-70q-14 0 -14 14v686q-40 0 -78.5 11t-76.5 37.5t-66.5 65.5t-46 101.5t-17.5 139.5z" />
<glyph unicode="&#xb7;" horiz-adv-x="835" d="M348 547q0 67 48 114.5t114 47.5q68 0 116 -47.5t48 -114.5q0 -66 -48.5 -114t-115.5 -48q-66 0 -114 48t-48 114z" />
<glyph unicode="&#xb8;" horiz-adv-x="684" d="M422 -164l59 197h125l-63 -197q-11 -31 -37 -31h-70q-24 0 -14 31z" />
<glyph unicode="&#xb9;" horiz-adv-x="778" d="M393.5 1292q-0.5 11 5.5 17l115 127q7 10 25 10h69q23 0 23 -23v-665q0 -25 -25 -25h-43q-9 0 -15.5 7.5t-6.5 17.5v573l-74 -84q-15 -18 -33 0l-35 31q-5 3 -5.5 14z" />
<glyph unicode="&#xba;" horiz-adv-x="866" d="M283 1059v117q0 77 19 134t44.5 86t60.5 46t58.5 20.5t48.5 3.5q24 0 46.5 -3.5t57.5 -20.5t59.5 -46t43 -86t18.5 -134v-117q0 -34 -4 -67t-18.5 -74t-38 -71t-66 -50.5t-98.5 -20.5q-57 0 -100.5 20.5t-67.5 51t-39 71t-19.5 73.5t-4.5 67zM375 1090q0 -68 11 -114.5 t31.5 -69.5t43 -31.5t53.5 -8.5q29 0 51 9t42 31.5t31 69t11 114.5v51q0 54 -4.5 91.5t-18 73.5t-41.5 54t-71 18q-35 0 -60.5 -13t-40.5 -33.5t-24 -52.5t-11.5 -64t-2.5 -74v-51z" />
<glyph unicode="&#xbb;" d="M174.5 72.5q3.5 23.5 15.5 42.5l199 311l-199 291q-12 19 -15.5 42.5t3.5 37.5l6 12q5 9 14 12t15 -4l276 -360q11 -13 11 -31t-11 -31l-276 -381q-6 -7 -15 -3.5t-14 12.5l-6 12q-7 14 -3.5 37.5zM525 72.5q4 23.5 16 42.5l198 311l-198 291q-12 19 -16 42.5t3 37.5 l7 12q5 9 13.5 12t14.5 -4l277 -360q10 -14 10 -31.5t-10 -30.5l-277 -381q-6 -7 -14.5 -4t-13.5 13l-7 12q-7 14 -3 37.5z" />
<glyph unicode="&#xbc;" horiz-adv-x="1153" d="M-28.5 1294q-0.5 11 5.5 17l115 127q7 10 25 10h69q23 0 23 -23v-665q0 -25 -25 -25h-43q-9 0 -15.5 7.5t-6.5 17.5v573l-74 -84q-15 -18 -33 0l-35 31q-5 3 -5.5 14zM49 18l729 1414q7 14 19 14h71q18 0 9 -19l-727 -1409q-9 -18 -23 -18h-70q-17 0 -8 18zM586 139v51 q0 15 4 25l225 485q7 14 12.5 19.5t16.5 5.5h57q12 0 17 -7t0 -18l-230 -485h178v109q0 20 17 20h59q16 0 16 -20v-109h78q19 0 19 -18v-58q0 -11 -6 -16.5t-13 -5.5h-78v-97q0 -20 -16 -20h-59q-6 0 -11.5 5.5t-5.5 14.5v97h-248q-32 0 -32 22z" />
<glyph unicode="&#xbd;" horiz-adv-x="1146" d="M-13.5 1294q-0.5 11 5.5 17l114 127q7 10 25 10h70q22 0 22 -23v-665q0 -25 -24 -25h-43q-9 0 -16 7.5t-7 17.5v573l-74 -84q-15 -17 -32 0l-35 31q-5 3 -5.5 14zM63 18l730 1414q7 14 18 14h72q17 0 8 -19l-727 -1409q-9 -18 -23 -18h-69q-18 0 -9 18zM694 537v20 q0 74 43.5 121t126.5 47q81 0 124.5 -49.5t43.5 -126.5q0 -49 -37.5 -115t-99.5 -133q-97 -100 -102 -203h217q12 0 20 -9.5t8 -20.5v-39q0 -12 -8 -20.5t-20 -8.5h-285q-10 0 -19.5 9t-9.5 20v73q0 65 41 138.5t90 124.5q49 49 79 98.5t30 85.5q0 82 -72 82q-34 0 -56 -22 t-22 -60v-12q0 -9 -6 -16t-16 -7h-47q-23 0 -23 23z" />
<glyph unicode="&#xbe;" horiz-adv-x="1171" d="M-49 889v14q0 27 22 27h45q8 0 16.5 -9t8.5 -18v-14q0 -17 2 -28t9 -23.5t23 -18.5t40 -6q42 0 66.5 23t27.5 53q3 20 2.5 57.5t-2.5 54.5q-8 48 -22 64t-56 16h-12q-12 0 -21.5 7t-9.5 20v35q0 9 10 16.5t21 7.5q50 0 70 22t20 93q0 39 -18.5 59.5t-63.5 20.5 q-82 0 -82 -57v-13q0 -9 -8 -18.5t-14 -9.5h-45q-10 0 -17.5 9t-7.5 19v11q0 68 44 110.5t130 42.5q84 0 126 -49t42 -125q0 -107 -49 -152q57 -31 57 -180q0 -114 -44 -171.5t-144 -57.5q-81 0 -123.5 47.5t-42.5 120.5zM68 18l729 1414q7 14 18 14h72q17 0 8 -19 l-727 -1409q-9 -18 -23 -18h-69q-17 0 -8 18zM604 139v51q0 15 4 25l226 485q5 10 7.5 14t7.5 7.5t13 3.5h58q12 0 16.5 -7.5t-0.5 -17.5l-229 -485h178v109q0 20 16 20h60q16 0 16 -20v-109h78q18 0 18 -18v-58q0 -22 -18 -22h-78v-97q0 -20 -16 -20h-60q-6 0 -11 5.5 t-5 14.5v97h-248q-33 0 -33 22z" />
<glyph unicode="&#xbf;" horiz-adv-x="784" d="M184 -82q0 78 23.5 146t50.5 107t76 97q38 47 57.5 73.5t43 68t33 85.5t9.5 97v90q0 14 15 14h94q14 0 14 -14v-92q0 -98 -43.5 -188.5t-132.5 -202.5q-75 -94 -98 -145.5t-23 -135.5q0 -190 203 -190q56 0 97 15t63.5 37.5t35 58.5t16 68t3.5 77q0 14 14 14h90 q15 0 15 -14q0 -182 -85.5 -275.5t-238.5 -93.5q-164 0 -248 84t-84 219zM393 944q0 56 40.5 95.5t98.5 39.5q56 0 96 -40t40 -95q0 -57 -40 -96t-96 -39q-59 0 -99 39t-40 96z" />
<glyph unicode="&#xc0;" horiz-adv-x="933" d="M174 18l283 1409q4 19 18 19h76q14 0 18 -19l281 -1409q3 -18 -8 -18h-76q-13 0 -16 18l-60 283h-356l-58 -283q-3 -18 -16 -18h-76q-13 0 -10 18zM344 1839q0 66 70 66q29 0 49.5 -12.5t50.5 -49.5l215 -264q6 -6 5 -15.5t-9 -15.5l-25 -18q-15 -11 -28 2l-291 235 q-37 33 -37 72zM352 399h322l-158 897z" />
<glyph unicode="&#xc1;" horiz-adv-x="933" d="M174 18l283 1409q4 19 18 19h76q14 0 18 -19l281 -1409q3 -18 -8 -18h-76q-13 0 -16 18l-60 283h-356l-58 -283q-3 -18 -16 -18h-76q-13 0 -10 18zM349 1559.5q-1 9.5 5 15.5l215 264q30 37 51 49.5t50 12.5q69 0 69 -66q0 -39 -37 -72l-290 -235q-14 -14 -29 -2l-25 18 q-8 6 -9 15.5zM352 399h322l-158 897z" />
<glyph unicode="&#xc2;" horiz-adv-x="942" d="M168 18l283 1409q4 19 18 19h76q14 0 18 -19l281 -1409q3 -18 -8 -18h-76q-14 0 -17 18l-59 283h-356l-58 -283q-3 -18 -16 -18h-76q-13 0 -10 18zM175.5 1539.5q-3.5 8.5 2.5 16.5l297 306q12 14 35 14t35 -14l297 -306q6 -8 2 -16.5t-13 -11.5l-34 -12q-37 -12 -58 6 l-229 211l-229 -211q-21 -18 -58 -6l-35 12q-9 3 -12.5 11.5zM346 399h322l-158 897z" />
<glyph unicode="&#xc3;" horiz-adv-x="942" d="M168 18l283 1409q4 19 18 19h76q14 0 18 -19l281 -1409q3 -18 -8 -18h-76q-14 0 -17 18l-59 283h-356l-58 -283q-3 -18 -16 -18h-76q-13 0 -10 18zM197 1620q20 83 76 127.5t128 44.5q12 0 22.5 -1t22 -4.5t19 -5.5t19 -9t16 -9t17 -11t15 -11t16.5 -13t15 -12 q25 -19 37 -27.5t28 -16t31 -9.5q42 -7 67.5 15.5t35.5 62.5q6 27 31 22l51 -12q19 -3 12 -29q-12 -54 -33.5 -89t-50.5 -50t-52 -19.5t-54 -4.5q-67 0 -144 65q-2 1 -10.5 8t-11.5 9.5t-12 8.5t-13 9t-12 8t-13 7.5l-12 6t-13 5l-12 3t-12 1.5q-34 0 -55.5 -13t-29 -27 t-15.5 -38q-10 -26 -33 -23l-61 10q-15 3 -10 21zM346 399h322l-158 897z" />
<glyph unicode="&#xc4;" horiz-adv-x="948" d="M174 18l283 1409q4 19 18 19h76q14 0 18 -19l281 -1409q3 -18 -8 -18h-76q-13 0 -16 18l-60 283h-356l-58 -283q-3 -18 -16 -18h-76q-13 0 -10 18zM225 1655q0 40 28 68t66 28q40 0 68.5 -28t28.5 -68q0 -38 -28.5 -66t-68.5 -28q-38 0 -66 28t-28 66zM352 399h322 l-158 897zM627 1655q0 40 28 68t66 28q40 0 68 -28t28 -68q0 -38 -28 -66t-68 -28q-38 0 -66 28t-28 66z" />
<glyph unicode="&#xc5;" horiz-adv-x="948" d="M174 18l283 1409q4 19 18 19h76q14 0 18 -19l281 -1409q3 -18 -8 -18h-76q-13 0 -16 18l-60 283h-356l-58 -283q-3 -18 -16 -18h-76q-13 0 -10 18zM342 1686q0 73 50 123.5t122 50.5q74 0 125 -50.5t51 -123.5q0 -75 -51 -126t-125 -51q-72 0 -122 52.5t-50 124.5z M352 399h322l-158 897zM430 1686q0 -36 24 -59t62 -23q36 0 59 23t23 59q0 39 -23 62.5t-59 23.5q-37 0 -61.5 -23.5t-24.5 -62.5z" />
<glyph unicode="&#xc6;" horiz-adv-x="1036" d="M63 18l416 1409q4 19 19 19h432q14 0 14 -14v-72q0 -12 -14 -12h-293v-549h246q14 0 14 -15v-69q0 -15 -14 -15h-246v-602h309q6 0 10.5 -3.5t4.5 -6.5v-74q0 -14 -15 -14h-393q-5 0 -9.5 4t-4.5 10v287h-291l-82 -283q-3 -18 -16 -18h-76q-6 0 -10 5t-1 13zM272 399h267 v922z" />
<glyph unicode="&#xc7;" horiz-adv-x="942" d="M176 328q-22 402 0 796q17 342 338 342q340 0 340 -389q0 -12 -14 -12h-70q-5 0 -9.5 4t-4.5 10q-3 78 -14 127.5t-37.5 88.5t-73 56t-117.5 17q-135 0 -185.5 -69.5t-58.5 -239.5q-8 -237 -7.5 -342t7.5 -303q2 -64 8 -110.5t22 -91.5t42 -72.5t69.5 -44.5t102.5 -17 q78 0 124 24.5t77 79.5q45 80 45 273q0 14 14 14h70q14 0 14 -14q0 -1 -0.5 -32.5t-1.5 -44t-3 -44.5t-5.5 -52t-8.5 -48t-13 -51.5t-19 -43.5q-71 -139 -244 -157l-39 -119q-9 -27 -30 -27h-58q-7 0 -11.5 6.5t-0.5 20.5l35 121q-70 8 -123 37.5t-81.5 65.5t-47 85.5 t-24 83.5t-7.5 72z" />
<glyph unicode="&#xc8;" horiz-adv-x="899" d="M256 14v1418q0 14 12 14h551q15 0 15 -14v-72q0 -5 -4.5 -8.5t-10.5 -3.5h-465v-549h418q14 0 14 -15v-69q0 -15 -14 -15h-418v-602h482q6 0 10 -3.5t4 -6.5v-74q0 -14 -14 -14h-566q-5 0 -9.5 4t-4.5 10zM367 1843q0 66 69 66q29 0 50 -12.5t51 -49.5l215 -264 q6 -6 5 -15.5t-9 -15.5l-25 -18q-15 -12 -29 2l-291 236q-36 32 -36 71z" />
<glyph unicode="&#xc9;" horiz-adv-x="899" d="M256 14v1418q0 14 12 14h551q15 0 15 -14v-72q0 -5 -4.5 -8.5t-10.5 -3.5h-465v-549h418q14 0 14 -15v-69q0 -15 -14 -15h-418v-602h482q6 0 10 -3.5t4 -6.5v-74q0 -14 -14 -14h-566q-5 0 -9.5 4t-4.5 10zM364 1563.5q-1 9.5 5 15.5l215 264q30 37 50.5 49.5t49.5 12.5 q70 0 70 -66q0 -39 -37 -72l-291 -235q-14 -14 -29 -2l-24 18q-8 6 -9 15.5z" />
<glyph unicode="&#xca;" horiz-adv-x="876" d="M177.5 1560q-3.5 9 2.5 17l297 305q12 14 35 14t35 -14l297 -305q6 -8 2.5 -17t-12.5 -12l-35 -12q-37 -12 -58 6l-229 211l-229 -211q-21 -18 -58 -6l-35 12q-9 3 -12.5 12zM233 14v1418q0 6 4 10t9 4h551q14 0 14 -14v-72q0 -12 -14 -12h-465v-549h418q14 0 14 -15v-69 q0 -15 -14 -15h-418v-602h481q6 0 10 -3.5t4 -6.5v-74q0 -14 -14 -14h-565q-5 0 -10 4t-5 10z" />
<glyph unicode="&#xcb;" horiz-adv-x="905" d="M250 1657q0 40 28 68t66 28q40 0 68 -28t28 -68q0 -38 -28 -66t-68 -28q-38 0 -66 28t-28 66zM262 14v1418q0 14 12 14h551q15 0 15 -14v-72q0 -5 -4.5 -8.5t-10.5 -3.5h-465v-549h418q15 0 15 -15v-69q0 -6 -4.5 -10.5t-10.5 -4.5h-418v-602h482q6 0 10 -3.5t4 -6.5v-74 q0 -14 -14 -14h-566q-5 0 -9.5 4t-4.5 10zM651 1657q0 40 28 68t66 28q40 0 68.5 -28t28.5 -68q0 -38 -28.5 -66t-68.5 -28q-38 0 -66 28t-28 66z" />
<glyph unicode="&#xcc;" horiz-adv-x="866" d="M233 14v70q0 14 15 14h215v1250h-215q-15 0 -15 14v70q0 14 15 14h528q15 0 15 -14v-70q0 -14 -15 -14h-215v-1250h215q15 0 15 -14v-70q0 -14 -15 -14h-528q-15 0 -15 14zM342 1839q0 66 70 66q29 0 49.5 -12.5t50.5 -49.5l215 -264q6 -6 5 -15.5t-9 -15.5l-25 -18 q-15 -11 -28 2l-291 235q-37 33 -37 72z" />
<glyph unicode="&#xcd;" horiz-adv-x="866" d="M233 14v70q0 14 15 14h215v1250h-215q-15 0 -15 14v70q0 14 15 14h528q15 0 15 -14v-70q0 -14 -15 -14h-215v-1250h215q15 0 15 -14v-70q0 -14 -15 -14h-528q-15 0 -15 14zM335 1559.5q-1 9.5 5 15.5l215 264q30 37 50.5 49.5t49.5 12.5q70 0 70 -66q0 -39 -37 -72 l-291 -235q-13 -13 -28 -2l-25 18q-8 6 -9 15.5z" />
<glyph unicode="&#xce;" horiz-adv-x="878" d="M177.5 1533.5q-3.5 8.5 2.5 16.5l297 305q12 13 35 13t35 -13l297 -305q6 -8 2.5 -16.5t-12.5 -11.5l-35 -13q-36 -12 -58 7l-229 210l-229 -210q-22 -19 -58 -7l-35 13q-9 3 -12.5 11.5zM246 14v70q0 14 14 14h215v1250h-215q-14 0 -14 14v70q0 14 14 14h528 q15 0 15 -14v-70q0 -14 -15 -14h-215v-1250h215q15 0 15 -14v-70q0 -14 -15 -14h-528q-14 0 -14 14z" />
<glyph unicode="&#xcf;" horiz-adv-x="843" d="M199 1657q0 40 28 68t66 28q40 0 68 -28t28 -68q0 -38 -28 -66t-68 -28q-38 0 -66 28t-28 66zM211 14v70q0 14 14 14h215v1250h-215q-14 0 -14 14v70q0 14 14 14h529q14 0 14 -14v-70q0 -14 -14 -14h-215v-1250h215q14 0 14 -14v-70q0 -14 -14 -14h-529q-14 0 -14 14z M600 1657q0 40 28 68t66 28q40 0 68.5 -28t28.5 -68q0 -38 -28.5 -66t-68.5 -28q-38 0 -66 28t-28 66z" />
<glyph unicode="&#xd0;" horiz-adv-x="1103" d="M57 707v69q0 6 4.5 10.5t10.5 4.5h190v641q0 14 14 14h334q58 0 106 -11.5t80 -29.5t57 -45t39.5 -51.5t24.5 -57t14 -54t7 -48.5q51 -376 4 -842q-3 -31 -6.5 -53t-14 -56.5t-25 -59t-41 -52.5t-61 -45.5t-86.5 -29t-116 -11.5h-316q-14 0 -14 14v678h-190 q-6 0 -10.5 4.5t-4.5 10.5zM360 98h250q42 0 75.5 7t57 17.5t41 30t27.5 38t18 48t11.5 53t7.5 60.5q21 181 19.5 382t-23.5 380q-5 49 -12 80t-23.5 63.5t-41.5 50t-67 29t-100 11.5h-240v-557h191q14 0 14 -15v-69q0 -15 -14 -15h-191v-594z" />
<glyph unicode="&#xd1;" d="M137 14v1418q0 14 15 14h120q15 0 23 -25l444 -1278v1289q0 14 15 14h69q15 0 15 -14v-1418q0 -14 -15 -14h-125q-11 0 -16 16l-446 1307v-1309q0 -14 -15 -14h-69q-15 0 -15 14zM152 1593q20 83 76 127.5t128 44.5q33 0 66 -13.5t46.5 -23.5t49.5 -38q27 -21 37.5 -28.5 t27 -15.5t31.5 -10q42 -7 67.5 15.5t35.5 62.5q7 28 31 23l51 -13q19 -3 12 -28q-12 -54 -33.5 -89.5t-50.5 -50t-52 -19.5t-54 -5q-67 0 -144 65q-2 1 -10.5 8t-11.5 9.5t-12 8.5t-13 9t-12 8t-13 7.5l-12 6t-13 5l-12 3t-12 1.5q-34 0 -55.5 -13t-29 -27t-15.5 -38 q-10 -25 -33 -22l-61 10q-14 3 -10 20z" />
<glyph unicode="&#xd2;" horiz-adv-x="1007" d="M174 328q-22 402 0 796q17 342 338 342t338 -342q22 -394 0 -796q-2 -41 -8.5 -78t-28.5 -89.5t-56 -89.5t-97.5 -64t-147.5 -27t-147.5 27t-97.5 64t-56 89.5t-28.5 89.5t-8.5 78zM268 414q2 -64 8 -110.5t22 -91.5t42 -72.5t69.5 -44.5t102.5 -17t102.5 17t69.5 44.5 t42 72.5t22 91.5t8 110.5q12 337 0 645q-6 169 -57.5 239t-186.5 70t-186.5 -70t-57.5 -239q-12 -308 0 -645zM326 1839q0 66 69 66q29 0 50 -12.5t51 -49.5l215 -264q6 -6 5 -15.5t-9 -15.5l-25 -18q-15 -12 -29 2l-291 235q-36 32 -36 72z" />
<glyph unicode="&#xd3;" horiz-adv-x="1007" d="M174 328q-22 402 0 796q17 342 338 342t338 -342q22 -394 0 -796q-2 -41 -8.5 -78t-28.5 -89.5t-56 -89.5t-97.5 -64t-147.5 -27t-147.5 27t-97.5 64t-56 89.5t-28.5 89.5t-8.5 78zM268 414q2 -64 8 -110.5t22 -91.5t42 -72.5t69.5 -44.5t102.5 -17t102.5 17t69.5 44.5 t42 72.5t22 91.5t8 110.5q12 337 0 645q-6 169 -57.5 239t-186.5 70t-186.5 -70t-57.5 -239q-12 -308 0 -645zM341 1565.5q-1 9.5 5 15.5l215 264q30 37 51 49.5t50 12.5q69 0 69 -66q0 -39 -37 -72l-291 -235q-13 -13 -28 -2l-25 18q-8 6 -9 15.5z" />
<glyph unicode="&#xd4;" horiz-adv-x="1007" d="M174 328q-22 402 0 796q17 342 338 342t338 -342q22 -394 0 -796q-2 -41 -8.5 -78t-28.5 -89.5t-56 -89.5t-97.5 -64t-147.5 -27t-147.5 27t-97.5 64t-56 89.5t-28.5 89.5t-8.5 78zM180 1550q-4 9 2 17l297 305q12 14 35 14t35 -14l297 -305q6 -8 2.5 -17t-12.5 -12 l-35 -12q-37 -12 -58 6l-229 211l-229 -211q-21 -18 -58 -6l-34 12q-9 3 -13 12zM268 414q2 -64 8 -110.5t22 -91.5t42 -72.5t69.5 -44.5t102.5 -17t102.5 17t69.5 44.5t42 72.5t22 91.5t8 110.5q12 337 0 645q-6 169 -57.5 239t-186.5 70t-186.5 -70t-57.5 -239 q-12 -308 0 -645z" />
<glyph unicode="&#xd5;" horiz-adv-x="1007" d="M174 328q-22 402 0 796q17 342 338 342t338 -342q22 -394 0 -796q-2 -41 -8.5 -78t-28.5 -89.5t-56 -89.5t-97.5 -64t-147.5 -27t-147.5 27t-97.5 64t-56 89.5t-28.5 89.5t-8.5 78zM178 1620q19 83 76 127.5t129 44.5q12 0 22.5 -1t22 -4.5t19 -5.5t19 -9t16 -9t17 -11 t15 -11t16.5 -13t15 -12q25 -19 37 -27.5t28 -16t31 -9.5q80 -13 102 78q6 27 31 22l51 -12q20 -3 13 -29q-12 -54 -33.5 -89t-51 -50t-52.5 -19.5t-54 -4.5q-66 0 -143 65q-2 1 -10.5 8t-11.5 9.5t-12 8.5t-13 9t-12 8t-13 7.5l-12 6t-13 5l-12 3t-12 1.5q-34 0 -55.5 -13 t-29 -27t-15.5 -38q-10 -26 -33 -23l-62 10q-15 3 -10 21zM268 414q2 -64 8 -110.5t22 -91.5t42 -72.5t69.5 -44.5t102.5 -17t102.5 17t69.5 44.5t42 72.5t22 91.5t8 110.5q12 337 0 645q-6 169 -57.5 239t-186.5 70t-186.5 -70t-57.5 -239q-12 -308 0 -645z" />
<glyph unicode="&#xd6;" horiz-adv-x="1007" d="M174 328q-22 402 0 796q17 342 338 342t338 -342q22 -394 0 -796q-2 -41 -8.5 -78t-28.5 -89.5t-56 -89.5t-97.5 -64t-147.5 -27t-147.5 27t-97.5 64t-56 89.5t-28.5 89.5t-8.5 78zM223 1657q0 40 28 68t66 28q40 0 68.5 -28t28.5 -68q0 -38 -28.5 -66t-68.5 -28 q-38 0 -66 28t-28 66zM268 414q2 -64 8 -110.5t22 -91.5t42 -72.5t69.5 -44.5t102.5 -17t102.5 17t69.5 44.5t42 72.5t22 91.5t8 110.5q12 337 0 645q-6 169 -57.5 239t-186.5 70t-186.5 -70t-57.5 -239q-12 -308 0 -645zM625 1657q0 40 28 68t66 28q40 0 68 -28t28 -68 q0 -38 -28 -66t-68 -28q-38 0 -66 28t-28 66z" />
<glyph unicode="&#xd7;" horiz-adv-x="1003" d="M142 77.5q0 6.5 5 10.5l293 293l-293 293q-7 10 0 20l50 49q11 9 20 0l293 -292l293 292q11 9 20 0l49 -49q10 -10 0 -20l-292 -293l294 -295q11 -11 0 -20l-49 -50q-10 -10 -20 0l-295 295l-293 -293q-10 -10 -20 0l-50 50q-5 3 -5 9.5z" />
<glyph unicode="&#xd8;" d="M158 328q-22 402 0 796q17 342 338 342q143 0 223 -67l55 143q5 19 21 19h67q18 0 12 -19l-86 -229q37 -74 46 -189q22 -394 0 -796q-2 -41 -8.5 -78t-28.5 -89.5t-56 -89.5t-97.5 -64t-147.5 -27q-115 0 -191 47l-43 -115q-8 -18 -20 -18h-68q-18 0 -12 18l67 182 q-66 90 -71 234zM252 414q3 -125 24 -193l406 1075q-54 72 -186 72q-135 0 -186.5 -70t-57.5 -239q-12 -308 0 -645zM342 123q54 -45 154 -45q59 0 102.5 17t69 44.5t41.5 72.5t22 91.5t8 110.5q12 337 0 645q-4 65 -8 100z" />
<glyph unicode="&#xd9;" horiz-adv-x="993" d="M176 326v1106q0 14 14 14h70q14 0 14 -14v-1080q0 -128 59 -201t179 -73t179 73t59 201v1080q0 14 14 14h70q14 0 14 -14v-1106q0 -35 -7 -74t-29.5 -89.5t-57.5 -89.5t-98 -66t-144 -27t-144 27t-98 66t-57.5 89.5t-29.5 89.5t-7 74zM346 1841q0 66 70 66 q29 0 49.5 -12.5t50.5 -49.5l215 -264q6 -6 5 -15.5t-9 -15.5l-25 -18q-15 -11 -28 2l-291 235q-37 33 -37 72z" />
<glyph unicode="&#xda;" horiz-adv-x="993" d="M176 326v1106q0 14 14 14h70q14 0 14 -14v-1080q0 -128 59 -201t179 -73t179 73t59 201v1080q0 14 14 14h70q14 0 14 -14v-1106q0 -35 -7 -74t-29.5 -89.5t-57.5 -89.5t-98 -66t-144 -27t-144 27t-98 66t-57.5 89.5t-29.5 89.5t-7 74zM337 1561.5q-1 9.5 5 15.5l215 264 q30 37 50.5 49.5t49.5 12.5q70 0 70 -66q0 -39 -37 -72l-291 -235q-13 -13 -28 -2l-25 18q-8 6 -9 15.5z" />
<glyph unicode="&#xdb;" horiz-adv-x="966" d="M150 326v1106q0 14 14 14h69q15 0 15 -14v-1080q0 -128 58.5 -201t178.5 -73t179 73t59 201v1080q0 14 14 14h70q14 0 14 -14v-1106q0 -35 -7 -74t-29.5 -89.5t-57.5 -89.5t-98 -66t-144 -27t-144 27t-97.5 66t-57 89.5t-29.5 89.5t-7 74zM151.5 1550q-3.5 9 2.5 17 l297 305q12 14 34.5 14t34.5 -14l297 -305q6 -8 2.5 -17t-12.5 -12l-35 -12q-37 -12 -57 6l-230 211l-229 -211q-20 -18 -57 -6l-35 12q-9 3 -12.5 12z" />
<glyph unicode="&#xdc;" horiz-adv-x="993" d="M176 326v1106q0 14 14 14h70q14 0 14 -14v-1080q0 -128 59 -201t179 -73t179 73t59 201v1080q0 14 14 14h70q14 0 14 -14v-1106q0 -35 -7 -74t-29.5 -89.5t-57.5 -89.5t-98 -66t-144 -27t-144 27t-98 66t-57.5 89.5t-29.5 89.5t-7 74zM215 1657q0 40 28 68t66 28 q40 0 68.5 -28t28.5 -68q0 -38 -28.5 -66t-68.5 -28q-38 0 -66 28t-28 66zM616 1657q0 39 28 67.5t67 28.5q40 0 68 -28t28 -68q0 -38 -28 -66t-68 -28q-38 0 -66.5 28t-28.5 66z" />
<glyph unicode="&#xdd;" horiz-adv-x="915" d="M178 1430q-5 16 12 16h80q11 0 17 -19l217 -667l225 667q6 19 19 19h83q18 0 13 -16l-291 -783v-633q0 -14 -12 -14h-74q-12 0 -12 14v633zM380 1528.5q-1 9.5 5 15.5l215 264q30 37 50.5 49.5t49.5 12.5q70 0 70 -66q0 -38 -37 -71l-291 -236q-13 -13 -28 -2l-25 18 q-8 6 -9 15.5z" />
<glyph unicode="&#xde;" horiz-adv-x="964" d="M170 -6v1440q0 14 14 14h70q14 0 14 -14v-299q89 104 244 104q24 0 47 -2.5t59 -13t66 -28t62.5 -51.5t55.5 -79.5t37.5 -116t14.5 -157.5v-189q0 -51 -6.5 -100.5t-28.5 -112t-57 -108t-100 -77.5t-150 -32q-156 0 -244 102v-280q0 -14 -14 -14h-70q-14 0 -14 14z M268 649q0 -94 13.5 -163t35.5 -110t55 -65.5t65.5 -32.5t74.5 -8t74.5 8t65.5 32.5t55 65.5t35.5 110t13.5 163v90q0 71 -5 124.5t-20 108.5t-41 90t-71 57t-107 22q-73 0 -123 -28.5t-75.5 -83t-35.5 -116t-10 -143.5v-121z" />
<glyph unicode="&#xdf;" horiz-adv-x="1005" d="M156 14v1088q0 83 19.5 148.5t50 105t72 65.5t81 35.5t80.5 9.5q155 0 232 -90t77 -256q0 -50 -1 -77.5t-8 -68.5t-21 -67t-40 -54t-65 -48q110 -31 172.5 -128.5t62.5 -264.5q0 -69 -8 -124.5t-31.5 -111t-62 -93t-104 -60.5t-152.5 -23h-51q-15 0 -15 14v70q0 14 15 14 h39q70 0 114 10t83 41t57 96t18 167q0 70 -10.5 123t-36 88t-46 56.5t-65.5 35.5t-67.5 19t-76.5 13q-3 1 -5 1q-14 4 -14 14v69q0 15 14 15q92 0 160 65q28 26 37.5 74t9.5 131q0 27 -1 47t-5.5 48t-13 48t-24 42t-37.5 35.5t-55 22.5t-75 9q-96 0 -150.5 -66t-54.5 -200 v-1088q0 -14 -14 -14h-70q-14 0 -14 14z" />
<glyph unicode="&#xe0;" horiz-adv-x="972" d="M168 254q0 58 18 104.5t53.5 81t65 54t76.5 45.5l324 174q0 134 -43 184.5t-166 50.5q-38 0 -69.5 -8.5t-51.5 -18t-36 -29.5t-23.5 -30.5t-14 -34.5t-7 -27t-3.5 -22q-2 -12 -12 -12l-74 4q-10 0 -10 10q0 112 83 189.5t220 77.5q305 0 305 -291v-668h76q16 0 16 -14 v-60q0 -14 -16 -14h-103q-31 0 -39 27l-16 51q-69 -98 -272 -98q-121 0 -201 82.5t-80 191.5zM266 252q0 -27 11 -56t32.5 -56t61 -44.5t90.5 -17.5q53 0 93.5 10t76 34t55 71t19.5 116v295l-297 -164q-78 -43 -110 -83t-32 -105zM326 1436q0 65 69 65q29 0 50 -12t51 -49 l215 -264q6 -6 5 -15.5t-9 -15.5l-25 -19q-15 -12 -29 2l-291 236q-36 32 -36 72z" />
<glyph unicode="&#xe1;" horiz-adv-x="972" d="M168 254q0 58 18 104.5t53.5 81t65 54t76.5 45.5l324 174q0 134 -43 184.5t-166 50.5q-38 0 -69.5 -8.5t-51.5 -18t-36 -29.5t-23.5 -30.5t-14 -34.5t-7 -27t-3.5 -22q-2 -12 -12 -12l-74 4q-10 0 -10 10q0 112 83 189.5t220 77.5q305 0 305 -291v-668h76q16 0 16 -14 v-60q0 -14 -16 -14h-103q-31 0 -39 27l-16 51q-69 -98 -272 -98q-121 0 -201 82.5t-80 191.5zM266 252q0 -27 11 -56t32.5 -56t61 -44.5t90.5 -17.5q53 0 93.5 10t76 34t55 71t19.5 116v295l-297 -164q-78 -43 -110 -83t-32 -105zM321 1160.5q-1 9.5 5 15.5l215 264 q30 37 50.5 49t49.5 12q70 0 70 -65q0 -39 -37 -72l-291 -236q-14 -14 -29 -2l-24 19q-8 6 -9 15.5z" />
<glyph unicode="&#xe2;" horiz-adv-x="978" d="M168 254q0 58 18 104.5t53.5 81t65 54t76.5 45.5l324 174q0 134 -43 184.5t-166 50.5q-38 0 -69.5 -8.5t-51.5 -18t-36 -29.5t-23.5 -30.5t-14 -34.5t-7 -27t-3.5 -22q-2 -12 -12 -12l-74 4q-10 0 -10 10q0 112 83 189.5t220 77.5q305 0 305 -291v-668h76q16 0 16 -14 v-60q0 -14 -16 -14h-103q-31 0 -39 27l-16 51q-69 -98 -272 -98q-121 0 -201 82.5t-80 191.5zM180 1165q-4 9 2 17l297 305q12 13 35 13t35 -13l297 -305q6 -8 2.5 -17t-12.5 -12l-35 -12q-37 -12 -58 6l-229 211l-229 -211q-21 -18 -58 -6l-34 12q-9 3 -13 12zM266 252 q0 -27 11 -56t32.5 -56t61 -44.5t90.5 -17.5q53 0 93.5 10t76 34t55 71t19.5 116v295l-297 -164q-78 -43 -110 -83t-32 -105z" />
<glyph unicode="&#xe3;" horiz-adv-x="978" d="M168 1229q19 83 76 127.5t129 44.5q12 0 22.5 -1t22 -4.5t19 -5.5t19 -9t16 -9t17 -11t15 -11t16.5 -13t15 -12q25 -19 37 -27.5t28 -16t31 -9.5q80 -13 102 78q6 27 31 22l51 -12q19 -3 12 -29q-12 -54 -33.5 -89.5t-50.5 -50t-52 -19.5t-54 -5q-65 0 -143 66 q-84 65 -121 65q-34 0 -56 -13t-29.5 -27t-15.5 -37q-10 -26 -32 -23l-62 10q-15 3 -10 21zM170 254q0 58 18 104.5t53.5 81t65 54t76.5 45.5l324 174q0 134 -43 184.5t-166 50.5q-38 0 -69.5 -8.5t-51.5 -18t-36 -29.5t-23.5 -30.5t-14 -34.5t-7 -27t-3.5 -22 q-2 -12 -12 -12l-74 4q-10 0 -10 10q0 112 83 189.5t220 77.5q305 0 305 -291v-668h76q16 0 16 -14v-60q0 -14 -16 -14h-103q-31 0 -39 27l-16 51q-69 -98 -272 -98q-121 0 -201 82.5t-80 191.5zM268 252q0 -27 11 -56t32.5 -56t61 -44.5t90.5 -17.5q53 0 93.5 10t76 34 t55 71t19.5 116v295l-297 -164q-78 -43 -110 -83t-32 -105z" />
<glyph unicode="&#xe4;" horiz-adv-x="974" d="M168 254q0 58 18 104.5t53.5 81t65 54t76.5 45.5l324 174q0 134 -43 184.5t-166 50.5q-38 0 -69.5 -8.5t-51.5 -18t-36 -29.5t-23.5 -30.5t-14 -34.5t-7 -27t-3.5 -22q-2 -12 -12 -12l-74 4q-10 0 -10 10q0 112 83 189.5t220 77.5q305 0 305 -291v-668h76q16 0 16 -14 v-60q0 -14 -16 -14h-103q-31 0 -39 27l-16 51q-69 -98 -272 -98q-121 0 -201 82.5t-80 191.5zM217 1294q0 40 28 68.5t66 28.5q40 0 68.5 -28.5t28.5 -68.5q0 -38 -28.5 -66t-68.5 -28q-38 0 -66 28t-28 66zM266 252q0 -27 11 -56t32.5 -56t61 -44.5t90.5 -17.5 q53 0 93.5 10t76 34t55 71t19.5 116v295l-297 -164q-78 -43 -110 -83t-32 -105zM618 1294q0 40 28.5 68.5t66.5 28.5q40 0 68 -28.5t28 -68.5q0 -38 -28 -66t-68 -28q-38 0 -66.5 28t-28.5 66z" />
<glyph unicode="&#xe5;" horiz-adv-x="974" d="M168 254q0 58 18 104.5t53.5 81t65 54t76.5 45.5l324 174q0 134 -43 184.5t-166 50.5q-38 0 -69.5 -8.5t-51.5 -18t-36 -29.5t-23.5 -30.5t-14 -34.5t-7 -27t-3.5 -22q-2 -12 -12 -12l-74 4q-10 0 -10 10q0 112 83 189.5t220 77.5q305 0 305 -291v-668h76q16 0 16 -14 v-60q0 -14 -16 -14h-103q-31 0 -39 27l-16 51q-69 -98 -272 -98q-121 0 -201 82.5t-80 191.5zM266 252q0 -27 11 -56t32.5 -56t61 -44.5t90.5 -17.5q53 0 93.5 10t76 34t55 71t19.5 116v295l-297 -164q-78 -43 -110 -83t-32 -105zM342 1303q0 73 50 123.5t122 50.5 q74 0 125 -50.5t51 -123.5q0 -75 -51 -126t-125 -51q-72 0 -122 52.5t-50 124.5zM430 1303q0 -36 24 -59t62 -23q36 0 59 23t23 59q0 39 -23 62.5t-59 23.5q-37 0 -61.5 -23.5t-24.5 -62.5z" />
<glyph unicode="&#xe6;" horiz-adv-x="1134" d="M-6 254q0 47 15.5 89.5t33 68.5t54 57.5t53.5 42.5t57 37l252 164q0 126 -33.5 180.5t-126.5 54.5q-38 0 -68 -7t-48.5 -20.5t-31 -27t-19 -33.5t-9 -32t-4.5 -29.5t-2 -20.5q-2 -12 -13 -12l-73 4q-11 0 -11 10q0 115 73 191t208 76q164 0 227 -119q31 62 84 90.5 t136 28.5q53 0 94.5 -14t69 -35.5t47.5 -57.5t31 -70t17 -83t7.5 -87.5t1.5 -91.5v-67q0 -26 -11.5 -37.5t-37.5 -11.5h-410v-60q0 -136 23.5 -216t61.5 -109t97 -29q78 0 120.5 39t70.5 151q3 12 16 8l70 -16q12 -3 10 -18q-11 -44 -21 -74t-32 -68.5t-50.5 -62.5 t-75.5 -40.5t-108 -16.5q-173 0 -227 141q-40 -83 -101 -112t-153 -29q-123 0 -193.5 75.5t-70.5 198.5zM92 252q0 -30 6 -56.5t22 -55t50.5 -45.5t85.5 -17q203 0 203 244v276v6l-226 -153q-78 -55 -109.5 -95.5t-31.5 -103.5zM557 590h361q0 17 0.5 49.5t0.5 51.5t-1 48.5 t-3.5 48t-8 43t-13.5 39.5t-21.5 31.5t-30.5 25.5t-40.5 15t-52.5 6q-39 0 -69 -11t-50 -27t-34 -44.5t-21.5 -53t-11.5 -63.5t-4.5 -66t-0.5 -69v-24z" />
<glyph unicode="&#xe7;" horiz-adv-x="978" d="M219 410v188q0 87 15.5 157.5t39 116t57 80t64.5 52t68 28t60.5 13t47.5 2.5q254 0 312 -275q3 -12 -11 -16l-71 -15q-13 -3 -17 11q-19 98 -65 147t-148 49q-77 0 -129 -31.5t-78.5 -90.5t-36.5 -125t-10 -154v-90q0 -94 13.5 -163t35.5 -110t55 -65.5t65.5 -32.5 t74.5 -8q84 0 141 41t84 149q3 13 17 8l69 -16q13 -3 11 -18q-9 -34 -21.5 -65t-34.5 -64t-49.5 -58t-68 -44.5t-88.5 -26.5l-39 -121q-9 -27 -31 -27h-57q-8 0 -12.5 7t-0.5 20l35 119q-62 6 -111.5 31t-80.5 62t-53 79t-32.5 90.5t-15 87.5t-4.5 78z" />
<glyph unicode="&#xe8;" horiz-adv-x="952" d="M178 410v188q0 208 86.5 328.5t243.5 120.5q73 0 131 -25.5t94.5 -68t60.5 -100.5t34 -118t10 -127v-67q0 -26 -12 -37.5t-38 -11.5h-512v-35q0 -94 13.5 -163t35.5 -110t55 -65.5t65.5 -32.5t74.5 -8q84 0 141 41t84 149q3 13 17 8l69 -16q13 -3 11 -18 q-12 -49 -33.5 -91.5t-58 -83t-96 -64t-134.5 -23.5q-85 0 -150 32t-100 77.5t-57 108t-28.5 112t-6.5 100.5zM276 590h463q0 358 -231 358q-232 0 -232 -358zM336 1436q0 65 70 65q29 0 49.5 -12t50.5 -49l215 -264q6 -6 5 -15.5t-9 -15.5l-25 -19q-15 -11 -28 2l-291 236 q-37 33 -37 72z" />
<glyph unicode="&#xe9;" horiz-adv-x="958" d="M199 410v188q0 208 86.5 328.5t242.5 120.5q73 0 131 -25.5t94.5 -68t60.5 -100.5t34 -118t10 -127v-67q0 -26 -11.5 -37.5t-37.5 -11.5h-512v-35q0 -94 13.5 -163t35.5 -110t55 -65.5t65.5 -32.5t74.5 -8q84 0 141 41t84 149q3 12 16 8l70 -16q12 -3 10 -18 q-12 -50 -33.5 -92t-58 -82.5t-95.5 -64t-134 -23.5q-85 0 -150 32t-100 77.5t-57 108t-28.5 112t-6.5 100.5zM297 590h463q0 358 -232 358q-231 0 -231 -358zM337 1160.5q-1 9.5 5 15.5l215 264q30 37 50.5 49t49.5 12q70 0 70 -65q0 -39 -37 -72l-291 -236q-13 -13 -28 -2 l-25 19q-8 6 -9 15.5z" />
<glyph unicode="&#xea;" horiz-adv-x="980" d="M196.5 1157q-3.5 9 2.5 17l297 305q12 13 34.5 13t34.5 -13l297 -305q6 -8 2.5 -17t-12.5 -12l-35 -12q-37 -12 -57 6l-230 211l-229 -211q-20 -18 -57 -6l-35 12q-9 3 -12.5 12zM203 410v188q0 208 86.5 328.5t242.5 120.5q73 0 131 -25.5t94.5 -68t60.5 -100.5t34 -118 t10 -127v-67q0 -26 -11.5 -37.5t-37.5 -11.5h-512v-35q0 -94 13.5 -163t35.5 -110t55 -65.5t65.5 -32.5t74.5 -8q84 0 141 41t84 149q3 12 16 8l70 -16q12 -3 10 -18q-12 -50 -33.5 -92t-58 -82.5t-95.5 -64t-134 -23.5q-85 0 -150 32t-100 77.5t-57 108t-28.5 112 t-6.5 100.5zM301 590h463q0 358 -232 358q-231 0 -231 -358z" />
<glyph unicode="&#xeb;" horiz-adv-x="962" d="M199 410v188q0 208 86.5 328.5t242.5 120.5q73 0 131 -25.5t94.5 -68t60.5 -100.5t34 -118t10 -127v-67q0 -26 -11.5 -37.5t-37.5 -11.5h-512v-35q0 -94 13.5 -163t35.5 -110t55 -65.5t65.5 -32.5t74.5 -8q84 0 141 41t84 149q3 12 16 8l70 -16q12 -3 10 -18 q-12 -50 -33.5 -92t-58 -82.5t-95.5 -64t-134 -23.5q-85 0 -150 32t-100 77.5t-57 108t-28.5 112t-6.5 100.5zM225 1294q0 40 28 68.5t66 28.5q40 0 68.5 -28.5t28.5 -68.5q0 -38 -28.5 -66t-68.5 -28q-38 0 -66 28t-28 66zM297 590h463q0 358 -232 358q-231 0 -231 -358z M627 1294q0 40 28 68.5t66 28.5q40 0 68 -28.5t28 -68.5q0 -38 -28 -66t-68 -28q-38 0 -66 28t-28 66z" />
<glyph unicode="&#xec;" horiz-adv-x="776" d="M336 1436q0 65 70 65q29 0 49.5 -12t50.5 -49l215 -264q6 -6 5 -15.5t-9 -15.5l-25 -19q-15 -11 -28 2l-291 236q-37 33 -37 72zM383 963v59q0 14 14 14h199q14 0 14 -14v-1008q0 -14 -14 -14h-70q-14 0 -14 14v934h-115q-14 0 -14 15z" />
<glyph unicode="&#xed;" horiz-adv-x="755" d="M337 1164.5q-1 9.5 5 15.5l215 264q30 37 50.5 49t49.5 12q70 0 70 -65q0 -39 -37 -72l-291 -235q-14 -14 -28 -3l-25 19q-8 6 -9 15.5zM356 963v59q0 14 15 14h198q15 0 15 -14v-1008q0 -14 -15 -14h-69q-15 0 -15 14v934h-114q-6 0 -10.5 4.5t-4.5 10.5z" />
<glyph unicode="&#xee;" horiz-adv-x="1013" d="M239.5 1152.5q-3.5 8.5 2.5 16.5l297 306q12 13 34.5 13t34.5 -13l297 -306q6 -8 2.5 -16.5t-12.5 -11.5l-35 -13q-36 -12 -57 7l-230 211l-229 -211q-21 -19 -57 -7l-35 13q-9 3 -12.5 11.5zM426 963v59q0 14 14 14h199q14 0 14 -14v-1008q0 -14 -14 -14h-70 q-14 0 -14 14v934h-115q-14 0 -14 15z" />
<glyph unicode="&#xef;" horiz-adv-x="882" d="M215 1294q0 40 28 68.5t66 28.5q40 0 68.5 -28.5t28.5 -68.5q0 -38 -28.5 -66t-68.5 -28q-38 0 -66 28t-28 66zM379 963v59q0 14 14 14h199q14 0 14 -14v-1008q0 -14 -14 -14h-70q-14 0 -14 14v934h-115q-14 0 -14 15zM616 1294q0 40 28.5 68.5t66.5 28.5q40 0 68 -28.5 t28 -68.5q0 -38 -28 -66t-68 -28q-38 0 -66.5 28t-28.5 66z" />
<glyph unicode="&#xf0;" horiz-adv-x="1017" d="M96 410v188q0 87 14.5 157.5t37.5 116.5t55.5 80t62.5 51.5t66 28t59 13t47 2.5q144 0 213 -82v270h-196q-15 0 -15 14v70q0 14 15 14h196v99q0 14 13 14h73q5 0 9 -4t4 -10v-99h161q15 0 15 -14v-70q0 -14 -15 -14h-161v-1223q0 -12 -13 -12h-78q-10 0 -10 12v76 q-75 -108 -211 -108q-85 0 -150 32t-100 77.5t-57 108t-28.5 112t-6.5 100.5zM195 457q0 -94 13.5 -163t35 -110t54.5 -65.5t65.5 -32.5t74.5 -8q92 0 152.5 75.5t60.5 206.5v338q0 114 -53.5 182t-159.5 68q-62 0 -107 -22t-71 -57t-41 -90t-19.5 -108t-4.5 -124v-90z" />
<glyph unicode="&#xf1;" horiz-adv-x="933" d="M176 14v1008q0 14 14 14h70q14 0 14 -14v-135q61 70 140 115t157 45q114 0 158.5 -68.5t44.5 -204.5v-760q0 -14 -14 -14h-70q-14 0 -14 14v676q0 168 -16 213t-93 45q-61 0 -129.5 -44.5t-116 -119.5t-47.5 -151v-619q0 -14 -14 -14h-70q-14 0 -14 14zM186 1229 q19 83 76 127.5t129 44.5q12 0 22.5 -1t22 -4.5t19 -5.5t19 -9t16 -9t17 -11t15 -11t16.5 -13t15 -12q25 -19 37 -27.5t28 -16t31 -9.5q42 -7 67.5 15.5t35.5 62.5q6 27 30 22l52 -12q19 -3 12 -29q-9 -44 -26.5 -75.5t-35.5 -48t-43 -26t-43.5 -12t-42.5 -2.5 q-65 0 -143 66q-84 65 -121 65q-34 0 -55.5 -13t-29 -26.5t-15.5 -37.5q-10 -26 -33 -23l-61 10q-15 3 -11 21z" />
<glyph unicode="&#xf2;" horiz-adv-x="985" d="M170 410v188q0 87 14.5 157.5t37.5 116.5t55.5 80t62.5 51.5t66 28t59 13t47 2.5t47 -2.5t59 -13t66 -28t62.5 -51.5t55.5 -80t37.5 -116.5t14.5 -157.5v-188q0 -51 -6.5 -100.5t-28.5 -112t-57 -108t-100 -77.5t-150 -32t-150 32t-100 77.5t-57 108t-28.5 112 t-6.5 100.5zM268 457q0 -94 13.5 -163t35.5 -110t55 -65.5t65.5 -32.5t74.5 -8t74.5 8t65.5 32.5t55 65.5t35.5 110t13.5 163v90q0 71 -5 124.5t-20 108t-41 89.5t-71 57t-107 22t-107 -22t-71 -57t-41 -89.5t-20 -108t-5 -124.5v-90zM336 1436q0 65 70 65q29 0 49.5 -12 t50.5 -49l215 -264q6 -6 5 -15.5t-9 -15.5l-25 -19q-15 -11 -28 2l-291 236q-37 33 -37 72z" />
<glyph unicode="&#xf3;" horiz-adv-x="983" d="M170 410v188q0 87 14.5 157.5t37.5 116.5t55.5 80t62.5 51.5t66 28t59 13t47 2.5t47 -2.5t59 -13t66 -28t62.5 -51.5t55.5 -80t37.5 -116.5t14.5 -157.5v-188q0 -51 -6.5 -100.5t-28.5 -112t-57 -108t-100 -77.5t-150 -32t-150 32t-100 77.5t-57 108t-28.5 112 t-6.5 100.5zM268 457q0 -94 13.5 -163t35.5 -110t55 -65.5t65.5 -32.5t74.5 -8t74.5 8t65.5 32.5t55 65.5t35.5 110t13.5 163v90q0 71 -5 124.5t-20 108t-41 89.5t-71 57t-107 22t-107 -22t-71 -57t-41 -89.5t-20 -108t-5 -124.5v-90zM335 1160.5q-1 9.5 5 15.5l215 264 q30 37 50.5 49t49.5 12q70 0 70 -65q0 -39 -37 -72l-291 -236q-13 -13 -28 -2l-25 19q-8 6 -9 15.5z" />
<glyph unicode="&#xf4;" horiz-adv-x="976" d="M174 410v188q0 87 14.5 157.5t37.5 116.5t55.5 80t62.5 51.5t66 28t59 13t47 2.5t47 -2.5t59 -13t66 -28t62.5 -51.5t55.5 -80t37.5 -116.5t14.5 -157.5v-188q0 -51 -6.5 -100.5t-28.5 -112t-57 -108t-100 -77.5t-150 -32t-150 32t-100 77.5t-57 108t-28.5 112 t-6.5 100.5zM182 1157q-4 9 2 17l297 305q12 13 35 13t35 -13l297 -305q6 -8 2.5 -17t-12.5 -12l-35 -12q-37 -12 -58 6l-229 211l-229 -211q-21 -18 -58 -6l-34 12q-9 3 -13 12zM272 457q0 -94 13.5 -163t35.5 -110t55 -65.5t65.5 -32.5t74.5 -8t74.5 8t65.5 32.5t55 65.5 t35.5 110t13.5 163v90q0 71 -5 124.5t-20 108t-41 89.5t-71 57t-107 22t-107 -22t-71 -57t-41 -89.5t-20 -108t-5 -124.5v-90z" />
<glyph unicode="&#xf5;" horiz-adv-x="958" d="M150 410v188q0 87 14.5 157.5t37.5 116.5t55.5 80t62.5 51.5t66 28t59 13t47 2.5t47 -2.5t59 -13t66 -28t62.5 -51.5t55.5 -80t37.5 -116.5t14.5 -157.5v-188q0 -51 -6.5 -100.5t-28.5 -112t-57 -108t-100 -77.5t-150 -32t-150 32t-100 77.5t-57 108t-28.5 112 t-6.5 100.5zM213 1229q19 83 76 127.5t129 44.5q12 0 22.5 -1t22 -4.5t19 -5.5t19 -9t16 -9t17 -11t15 -11t16.5 -13t15 -12q25 -19 37 -27.5t28 -16t31 -9.5q80 -13 102 78q6 27 31 22l51 -12q19 -3 12 -29q-12 -54 -33.5 -89.5t-50.5 -50t-52 -19.5t-54 -5q-65 0 -143 66 q-84 65 -121 65q-34 0 -56 -13t-29.5 -27t-15.5 -37q-10 -26 -32 -23l-62 10q-15 3 -10 21zM248 457q0 -94 13.5 -163t35.5 -110t55 -65.5t65.5 -32.5t74.5 -8t74.5 8t65.5 32.5t54.5 65.5t35 110t13.5 163v90q0 71 -4.5 124t-19.5 108t-41 90t-71 57t-107 22t-107 -22 t-71 -57t-41 -89.5t-20 -108t-5 -124.5v-90z" />
<glyph unicode="&#xf6;" horiz-adv-x="987" d="M170 410v188q0 87 14.5 157.5t37.5 116.5t55.5 80t62.5 51.5t66 28t59 13t47 2.5t47 -2.5t59 -13t66 -28t62.5 -51.5t55.5 -80t37.5 -116.5t14.5 -157.5v-188q0 -51 -6.5 -100.5t-28.5 -112t-57 -108t-100 -77.5t-150 -32t-150 32t-100 77.5t-57 108t-28.5 112 t-6.5 100.5zM236 1294q0 40 28 68.5t66 28.5q40 0 68 -28.5t28 -68.5q0 -38 -28 -66t-68 -28q-38 0 -66 28t-28 66zM268 457q0 -94 13.5 -163t35.5 -110t55 -65.5t65.5 -32.5t74.5 -8t74.5 8t65.5 32.5t55 65.5t35.5 110t13.5 163v90q0 71 -5 124.5t-20 108t-41 89.5t-71 57 t-107 22t-107 -22t-71 -57t-41 -89.5t-20 -108t-5 -124.5v-90zM637 1294q0 40 28 68.5t66 28.5q40 0 68 -28.5t28 -68.5q0 -38 -28 -66t-68 -28q-38 0 -66 28t-28 66z" />
<glyph unicode="&#xf7;" horiz-adv-x="1013" d="M84 424v90q0 14 14 14h826q14 0 14 -14v-90q0 -14 -14 -14h-826q-14 0 -14 14zM403 113q0 49 35 83.5t82 34.5q50 0 84.5 -34.5t34.5 -83.5q0 -47 -35 -81t-84 -34q-46 0 -81.5 34t-35.5 81zM403 831q0 49 35.5 84t81.5 35q50 0 84.5 -35t34.5 -84q0 -47 -35 -81.5 t-84 -34.5q-46 0 -81.5 34.5t-35.5 81.5z" />
<glyph unicode="&#xf8;" horiz-adv-x="1005" d="M170 410v188q0 87 14.5 157.5t37.5 116.5t55.5 80t62.5 51.5t66 28t59 13t47 2.5q85 0 150 -33l36 94q5 18 21 18h67q19 0 13 -18l-58 -152q113 -117 113 -358v-188q0 -51 -6.5 -100.5t-28.5 -112t-57 -108t-100 -77.5t-150 -32q-75 0 -133 22l-35 -90q-5 -18 -20 -18 h-68q-18 0 -12 18l53 139q-127 110 -127 359zM268 457q0 -210 68 -301l291 766q-50 26 -115 26q-62 0 -107 -22t-71 -57t-41 -89.5t-20 -108t-5 -124.5v-90zM414 94q41 -16 98 -16q42 0 74.5 8t65.5 32.5t55 65.5t35.5 110t13.5 163v90q0 211 -56 303z" />
<glyph unicode="&#xf9;" horiz-adv-x="958" d="M213 274v748q0 14 14 14h70q14 0 14 -14v-709q0 -52 2 -85t9 -64.5t20.5 -48.5t36 -27t55.5 -10q60 0 123 34t109.5 100.5t46.5 145.5v664q0 14 14 14h70q14 0 14 -14v-1008q0 -14 -14 -14h-70q-14 0 -14 14v101q-54 -60 -128 -97.5t-155 -37.5q-217 0 -217 294z M350 1436q0 65 70 65q29 0 49.5 -12t50.5 -49l215 -264q6 -6 5 -15.5t-9 -15.5l-24 -19q-15 -12 -29 2l-291 236q-37 33 -37 72z" />
<glyph unicode="&#xfa;" horiz-adv-x="958" d="M213 274v748q0 14 14 14h70q14 0 14 -14v-709q0 -52 2 -85t9 -64.5t20.5 -48.5t36 -27t55.5 -10q60 0 123 34t109.5 100.5t46.5 145.5v664q0 14 14 14h70q14 0 14 -14v-1008q0 -14 -14 -14h-70q-14 0 -14 14v101q-54 -60 -128 -97.5t-155 -37.5q-217 0 -217 294z M368 1160.5q-1 9.5 5 15.5l215 264q30 37 50.5 49t49.5 12q70 0 70 -65q0 -39 -37 -72l-291 -236q-14 -14 -29 -2l-24 19q-8 6 -9 15.5z" />
<glyph unicode="&#xfb;" horiz-adv-x="956" d="M177.5 1161q-3.5 9 2.5 17l297 305q12 13 35 13t35 -13l297 -305q6 -8 2.5 -17t-12.5 -12l-35 -12q-37 -12 -58 6l-229 211l-229 -211q-21 -18 -58 -6l-35 12q-9 3 -12.5 12zM207 274v748q0 14 14 14h70q14 0 14 -14v-709q0 -52 2 -85t9 -64.5t20.5 -48.5t36 -27 t55.5 -10q60 0 123 34t109.5 100.5t46.5 145.5v664q0 14 14 14h70q14 0 14 -14v-1008q0 -14 -14 -14h-70q-14 0 -14 14v101q-54 -60 -128 -97.5t-155 -37.5q-217 0 -217 294z" />
<glyph unicode="&#xfc;" horiz-adv-x="952" d="M205 274v748q0 14 14 14h70q14 0 14 -14v-709q0 -52 2 -85t9 -64.5t20.5 -48.5t36 -27t55.5 -10q60 0 123 34t109.5 100.5t46.5 145.5v664q0 14 14 14h69q15 0 15 -14v-1008q0 -14 -15 -14h-69q-14 0 -14 14v101q-54 -60 -128 -97.5t-155 -37.5q-217 0 -217 294z M225 1294q0 40 28 68.5t66 28.5q40 0 68.5 -28.5t28.5 -68.5q0 -38 -28.5 -66t-68.5 -28q-38 0 -66 28t-28 66zM627 1294q0 40 28 68.5t66 28.5q40 0 68 -28.5t28 -68.5q0 -38 -28 -66t-68 -28q-38 0 -66 28t-28 66z" />
<glyph unicode="&#xfd;" horiz-adv-x="980" d="M164 1022q-4 14 6 14h80q12 0 18 -22l260 -891l226 891q6 22 18 22h80q10 0 6 -14l-332 -1301q-18 -67 -53.5 -99t-97.5 -32h-107q-14 0 -14 15v69q0 15 14 15h92q38 0 51.5 15t28.5 75l41 164zM333 1119.5q-1 9.5 5 15.5l215 264q30 37 50.5 49t49.5 12q70 0 70 -65 q0 -39 -37 -72l-291 -236q-13 -13 -28 -2l-25 19q-8 6 -9 15.5z" />
<glyph unicode="&#xfe;" horiz-adv-x="980" d="M170 -375v1805q0 14 14 14h70q14 0 14 -14v-488q89 105 244 105q24 0 47 -2.5t59 -13t66 -28t62.5 -51.5t55.5 -80t37.5 -116.5t14.5 -157.5v-188q0 -51 -6.5 -100.5t-28.5 -112t-57 -108t-100 -77.5t-150 -32q-156 0 -244 102v-457q0 -14 -14 -14h-70q-14 0 -14 14z M268 457q0 -94 13.5 -163t35.5 -110t55 -65.5t65.5 -32.5t74.5 -8t74.5 8t65.5 32.5t55 65.5t35.5 110t13.5 163v90q0 71 -5 124.5t-20 108t-41 89.5t-71 57t-107 22q-73 0 -123 -28.5t-75.5 -82.5t-35.5 -115.5t-10 -143.5v-121z" />
<glyph unicode="&#xff;" horiz-adv-x="935" d="M164 1022q-4 14 6 14h80q12 0 18 -22l260 -891l226 891q6 22 18 22h80q10 0 6 -14l-332 -1301q-18 -67 -53.5 -99t-97.5 -32h-107q-14 0 -14 15v69q0 15 14 15h92q38 0 51.5 15t28.5 75l41 164zM219 1294q0 40 28 68.5t66 28.5q40 0 68.5 -28.5t28.5 -68.5 q0 -38 -28.5 -66t-68.5 -28q-38 0 -66 28t-28 66zM621 1294q0 40 28 68.5t66 28.5q40 0 68 -28.5t28 -68.5q0 -38 -28 -66t-68 -28q-38 0 -66 28t-28 66z" />
<glyph unicode="&#x152;" horiz-adv-x="1054" d="M127 328q-22 402 0 796q2 34 4 57t10 62t20.5 66t36 59t55.5 51.5t81 33t110 13.5q79 0 146 -20h368q15 0 15 -14v-72q0 -5 -4.5 -8.5t-10.5 -3.5h-301v-549h254q15 0 15 -15v-69q0 -6 -4.5 -10.5t-10.5 -4.5h-254v-602h318q6 0 10 -3.5t4 -6.5v-74q0 -14 -14 -14h-389 q-56 -20 -142 -20q-61 0 -110 14.5t-81 35.5t-56 54.5t-36 61t-20 67.5t-10 61.5t-4 53.5zM221 414q2 -49 4 -80.5t7.5 -71t15 -63.5t25.5 -49.5t39 -39.5t56 -23t76 -9q50 0 115 14v1260q-50 16 -115 16q-69 0 -112 -16.5t-66.5 -58t-32.5 -93.5t-12 -141q-12 -308 0 -645z " />
<glyph unicode="&#x153;" horiz-adv-x="1148" d="M0 389v215q0 47 2 84.5t8.5 85.5t18.5 84.5t34 73.5t52 61t75 39t101 15q29 0 57.5 -5.5t64.5 -20.5t65 -49.5t44 -84.5q53 160 240 160q41 0 75 -8.5t59 -22t44.5 -37t32.5 -45.5t22 -56.5t14 -61.5t7.5 -68t3 -69t0.5 -71v-67q0 -26 -11.5 -37.5t-37.5 -11.5h-400v-60 q0 -191 52 -272.5t151 -81.5q69 0 100.5 43.5t57.5 146.5q3 12 16 8l66 -16q12 -3 10 -18q-7 -28 -10 -41t-11.5 -40t-14.5 -40.5t-18 -36t-24 -35t-30 -27.5t-38 -23t-46.5 -13.5t-57.5 -5.5q-47 0 -84 10t-61 24.5t-45 40.5t-33.5 48t-28.5 57q-32 -85 -84.5 -132.5 t-146.5 -47.5q-291 0 -291 409zM98 436q0 -146 16 -220.5t56.5 -106t120.5 -31.5q87 0 134.5 82t47.5 272v146v58t-1.5 56.5t-4.5 57.5t-9 51.5t-15 49t-23 38.5t-32 32.5t-42.5 18.5t-54.5 8q-114 0 -153.5 -89t-39.5 -312v-111zM571 590h351q0 50 -0.5 72.5t-3 69 t-8.5 69.5t-17.5 56.5t-28 49.5t-42.5 28.5t-60 12.5q-39 0 -69 -11t-50 -27t-34 -44.5t-21.5 -53t-11.5 -63.5t-4.5 -66t-0.5 -69v-24z" />
<glyph unicode="&#x178;" horiz-adv-x="915" d="M178 1430q-5 16 12 16h80q11 0 17 -19l217 -667l225 667q6 19 19 19h83q18 0 13 -16l-291 -783v-633q0 -14 -12 -14h-74q-12 0 -12 14v633zM209 1657q0 40 28 68t66 28q40 0 68 -28t28 -68q0 -38 -28 -66t-68 -28q-38 0 -66 28t-28 66zM610 1657q0 39 28 67.5t67 28.5 q40 0 68 -28t28 -68q0 -38 -28 -66t-68 -28q-38 0 -66.5 28t-28.5 66z" />
<glyph unicode="&#x2c6;" horiz-adv-x="974" d="M177.5 1152.5q-3.5 8.5 2.5 16.5l297 306q12 13 35 13t35 -13l297 -306q6 -8 2.5 -16.5t-12.5 -11.5l-35 -13q-36 -12 -58 7l-229 211l-229 -211q-22 -19 -58 -7l-35 13q-9 3 -12.5 11.5z" />
<glyph unicode="&#x2dc;" horiz-adv-x="960" d="M182 1206q19 83 76 127.5t129 44.5q33 0 66 -13.5t46.5 -23.5t49.5 -38q27 -21 37.5 -28.5t27 -15.5t31.5 -10q42 -7 67.5 15.5t35.5 62.5q7 28 30 23l51 -13q20 -3 13 -28q-9 -44 -26.5 -75.5t-35.5 -48t-43 -26t-43.5 -12t-42.5 -2.5q-66 0 -143 65q-2 1 -10.5 8 t-11.5 9.5t-12 8.5t-13 9t-12 8t-13 7.5l-12 6t-13 5l-12 3t-12 1.5q-34 0 -55.5 -13t-29 -27t-15.5 -38q-10 -25 -33 -22l-61 10q-15 3 -11 20z" />
<glyph unicode="&#x2000;" horiz-adv-x="954" />
<glyph unicode="&#x2001;" horiz-adv-x="1909" />
<glyph unicode="&#x2002;" horiz-adv-x="954" />
<glyph unicode="&#x2003;" horiz-adv-x="1909" />
<glyph unicode="&#x2004;" horiz-adv-x="636" />
<glyph unicode="&#x2005;" horiz-adv-x="477" />
<glyph unicode="&#x2006;" horiz-adv-x="318" />
<glyph unicode="&#x2007;" horiz-adv-x="318" />
<glyph unicode="&#x2008;" horiz-adv-x="238" />
<glyph unicode="&#x2009;" horiz-adv-x="381" />
<glyph unicode="&#x200a;" horiz-adv-x="106" />
<glyph unicode="&#x2010;" horiz-adv-x="1007" d="M166 424v90q0 14 14 14h662q14 0 14 -14v-90q0 -14 -14 -14h-662q-14 0 -14 14z" />
<glyph unicode="&#x2011;" horiz-adv-x="1007" d="M166 424v90q0 14 14 14h662q14 0 14 -14v-90q0 -14 -14 -14h-662q-14 0 -14 14z" />
<glyph unicode="&#x2012;" horiz-adv-x="1007" d="M166 424v90q0 14 14 14h662q14 0 14 -14v-90q0 -14 -14 -14h-662q-14 0 -14 14z" />
<glyph unicode="&#x2013;" horiz-adv-x="1167" d="M20 457v67q0 10 7 17.5t18 7.5h934q11 0 18 -7.5t7 -17.5v-67q0 -11 -7 -18t-18 -7h-934q-11 0 -18 7t-7 18z" />
<glyph unicode="&#x2014;" horiz-adv-x="1046" d="M141 457v67q0 10 7.5 17.5t17.5 7.5h692q10 0 17.5 -7.5t7.5 -17.5v-67q0 -11 -7.5 -18t-17.5 -7h-692q-10 0 -17.5 7t-7.5 18z" />
<glyph unicode="&#x2018;" horiz-adv-x="745" d="M332 1151q0 51 3.5 87.5t16.5 89t44.5 102t80.5 94.5q35 35 66 4q22 -25 -17 -70q-51 -55 -72.5 -96t-27.5 -92q24 4 51 4q56 0 94.5 -42t34.5 -97q-6 -61 -45 -97.5t-92 -33.5q-61 3 -99 44t-38 103z" />
<glyph unicode="&#x2019;" horiz-adv-x="808" d="M416 1413q6 61 45 97.5t92 33.5q61 -3 99 -44t38 -103q0 -51 -3.5 -87.5t-16.5 -89t-44.5 -102t-80.5 -94.5q-35 -35 -66 -4q-22 25 17 70q51 55 72.5 96t27.5 92q-24 -4 -51 -4q-56 0 -94.5 42t-34.5 97z" />
<glyph unicode="&#x201a;" horiz-adv-x="792" d="M397 137q6 61 45.5 97.5t92.5 33.5q61 -3 98 -44t37 -103q0 -52 -3.5 -88t-16 -88.5t-44 -102t-80.5 -94.5q-34 -34 -65 -4q-22 25 16 70q51 56 73 96.5t28 91.5q-24 -4 -52 -4q-56 0 -94.5 42t-34.5 97z" />
<glyph unicode="&#x201c;" horiz-adv-x="940" d="M137 1151q0 49 4 86.5t17.5 89t45.5 101.5t81 96q38 32 63 4q11 -11 7.5 -31.5t-21.5 -38.5q-52 -56 -74.5 -97t-28.5 -91q24 4 54 4q56 0 94.5 -42t32.5 -97q-6 -61 -45 -97.5t-93 -33.5q-61 3 -99 44t-38 103zM524 1151q0 50 4 87.5t17.5 89t45.5 101.5t81 95 q35 35 63 4q25 -25 -14 -70q-51 -55 -72.5 -96t-27.5 -92q24 4 51 4q56 0 94.5 -42t34.5 -97q-6 -61 -45.5 -97.5t-93.5 -33.5q-60 3 -99 44.5t-39 102.5z" />
<glyph unicode="&#x201d;" horiz-adv-x="1003" d="M223 1413q6 61 45.5 97.5t93.5 33.5q60 -3 98 -44t38 -103q0 -50 -3.5 -87t-16.5 -89.5t-45 -102t-81 -94.5q-35 -35 -63 -4q-25 25 14 70q51 55 72.5 96t27.5 92q-24 -4 -51 -4q-56 0 -94.5 42t-34.5 97zM612 1413q6 61 45 97.5t93 33.5q61 -3 98 -44t37 -103 q0 -50 -3.5 -87t-16.5 -89t-45 -101.5t-81 -95.5q-38 -32 -63 -4q-11 11 -7.5 31.5t21.5 38.5q52 56 74.5 97t28.5 91q-24 -4 -54 -4q-56 0 -94.5 42t-32.5 97z" />
<glyph unicode="&#x201e;" horiz-adv-x="987" d="M201 139q6 61 45.5 97.5t93.5 33.5q60 -3 98.5 -44.5t38.5 -102.5q0 -50 -4 -87.5t-17 -89t-45 -101.5t-81 -95q-20 -18 -36 -17.5t-28 13.5q-24 24 15 70q51 55 72.5 96t27.5 92q-24 -4 -51 -4q-56 0 -94.5 42t-34.5 97zM590 139q6 61 44.5 97.5t92.5 33.5q61 -3 99 -44 t38 -103q0 -50 -4 -87t-17 -88.5t-45 -101.5t-81 -96q-39 -33 -64 -4q-11 12 -7 32t22 38q52 56 74 96.5t28 91.5q-24 -4 -53 -4q-56 0 -94.5 42t-32.5 97z" />
<glyph unicode="&#x2022;" horiz-adv-x="901" d="M279 647q0 97 67.5 166.5t165.5 69.5t165.5 -69.5t67.5 -166.5q0 -98 -67.5 -164.5t-165.5 -66.5t-165.5 66.5t-67.5 164.5z" />
<glyph unicode="&#x2026;" horiz-adv-x="1169" d="M-23 98q0 53 37.5 91t89.5 38t90.5 -38.5t38.5 -90.5t-38 -89.5t-91 -37.5q-52 0 -89.5 37.5t-37.5 89.5zM385 98q0 53 37.5 91t89.5 38t90.5 -38.5t38.5 -90.5t-38 -89.5t-91 -37.5q-52 0 -89.5 37.5t-37.5 89.5zM793 98q0 53 37.5 91t89.5 38t90.5 -38.5t38.5 -90.5 t-38 -89.5t-91 -37.5q-52 0 -89.5 37.5t-37.5 89.5z" />
<glyph unicode="&#x202f;" horiz-adv-x="381" />
<glyph unicode="&#x2039;" horiz-adv-x="804" d="M340 428q0 20 14 39l271 352q9 11 24 6.5t21 -18.5l6 -12q8 -15 4.5 -41.5t-16.5 -46.5l-191 -279l191 -299q12 -20 15.5 -46.5t-3.5 -41.5l-6 -12q-8 -15 -21.5 -19t-23.5 8l-271 371q-14 19 -14 39z" />
<glyph unicode="&#x203a;" horiz-adv-x="821" d="M341.5 754q-3.5 27 4.5 41l6 12q6 14 21 18.5t24 -6.5l271 -352q14 -19 14 -39t-14 -39l-271 -371q-10 -12 -23.5 -8t-21.5 19l-6 12q-7 15 -3.5 41.5t15.5 46.5l191 299l-191 279q-13 20 -16.5 47z" />
<glyph unicode="&#x205f;" horiz-adv-x="477" />
<glyph unicode="&#x20ac;" horiz-adv-x="1038" d="M27 586v69q0 15 14 15h137v118h-137q-14 0 -14 15v69q0 15 14 15h137q2 69 8 126.5t20 122.5t35.5 115.5t56.5 98.5t81 79.5t112 50.5t146 19q254 0 344 -207q5 -4 3.5 -9t-7.5 -7l2 2l-70 -33q-12 -8 -16 4h2q-34 81 -99.5 115.5t-168.5 34.5q-87 0 -150.5 -28.5 t-100.5 -74t-59.5 -115.5t-29.5 -137.5t-8 -156.5h440q14 0 14 -15v-69q0 -15 -14 -15h-440q0 -44 4 -118h354q14 0 14 -15v-69q0 -15 -14 -15h-350q6 -103 18 -175.5t36 -135t62.5 -100t97 -58t138.5 -20.5q56 0 99 8.5t67.5 19t46 31.5t29.5 33.5t22 36.5q5 9 15 2l67 -37 h-4q16 -6 8 -18l6 8l-10 -14q-13 -23 -23.5 -39t-39.5 -43.5t-64 -45t-95 -31t-134 -13.5q-84 0 -151.5 22.5t-114.5 65t-80.5 96t-54 123t-31 137t-15.5 147.5h-141q-14 0 -14 15z" />
<glyph unicode="&#x2122;" horiz-adv-x="1140" d="M29 1382v33q0 14 8.5 22.5t21.5 8.5h357q11 0 19.5 -8.5t8.5 -22.5v-33q0 -12 -8.5 -21t-19.5 -9h-131v-654q0 -12 -8 -21t-21 -9h-39q-11 0 -20 9t-9 21v654h-129q-12 0 -21 9t-9 21zM543 698v717q0 11 9 21t21 10h37q19 0 29 -31l127 -411l129 413q10 29 31 29h37 q12 0 21 -10t9 -21v-717q0 -12 -9 -21t-21 -9h-37q-12 0 -21.5 9t-9.5 21v295l27 248h-11l-98 -328q-10 -30 -29 -30h-34q-10 0 -16 7t-15 23l-96 324h-11l27 -244v-295q0 -12 -8 -21t-21 -9h-37q-12 0 -21 9t-9 21z" />
<glyph unicode="&#xe000;" horiz-adv-x="1034" d="M0 0v1034h1034v-1034h-1034z" />
<glyph unicode="&#xfb01;" horiz-adv-x="991" d="M133 952v70q0 14 14 14h154v142q0 288 287 288q128 0 193 -51t65 -162q0 -14 -15 -14h-71q-15 0 -15 14q0 69 -39.5 92t-117.5 23q-110 0 -147.5 -45.5t-37.5 -146.5v-140h433q14 0 14 -14v-1008q0 -14 -14 -14h-70q-14 0 -14 14v924h-349v-924q0 -14 -14 -14h-74 q-14 0 -14 14v924h-154q-14 0 -14 14z" />
<glyph unicode="&#xfb02;" horiz-adv-x="1001" d="M90 952v70q0 14 14 14h154v142q0 288 287 288h291q14 0 14 -14v-1438q0 -14 -14 -14h-70q-14 0 -14 14v1354h-207q-110 0 -147.5 -45.5t-37.5 -146.5v-140h213q15 0 15 -14v-70q0 -14 -15 -14h-213v-924q0 -14 -14 -14h-74q-14 0 -14 14v924h-154q-14 0 -14 14z" />
</font>
</defs>
</svg>
